<?xml version="1.0" encoding="UTF-8" standalone="no"?>
<!DOCTYPE svg PUBLIC "-//W3C//DTD SVG 1.1//EN"
 "http://www.w3.org/Graphics/SVG/1.1/DTD/svg11.dtd">
<!-- Generated by graphviz version 2.38.0 (20140413.2041)
 -->
<!-- Title: foo Pages: 1 -->
<svg width="1562pt" height="1445pt"
 viewBox="0.00 0.00 1562.25 1444.55" xmlns="http://www.w3.org/2000/svg" xmlns:xlink="http://www.w3.org/1999/xlink">
<g id="graph0" class="graph" transform="scale(1 1) rotate(0) translate(775.522 572.743)">
<title>foo</title>
<polygon fill="white" stroke="none" points="-775.522,871.802 -775.522,-572.743 786.723,-572.743 786.723,871.802 -775.522,871.802"/>
<!-- DescriptorRecord -->
<g id="node1" class="node"><title>DescriptorRecord</title>
<ellipse fill="none" stroke="Red" cx="33.0808" cy="-152.679" rx="73.387" ry="18"/>
<text text-anchor="middle" x="33.0808" y="-148.979" font-family="Times,serif" font-size="14.00">DescriptorRecord</text>
</g>
<!-- AllowableQualifiersList -->
<g id="node2" class="node"><title>AllowableQualifiersList</title>
<ellipse fill="none" stroke="Red" cx="323.278" cy="-251.499" rx="96.3833" ry="18"/>
<text text-anchor="middle" x="323.278" y="-247.799" font-family="Times,serif" font-size="14.00">AllowableQualifiersList</text>
</g>
<!-- DescriptorRecord&#45;&gt;AllowableQualifiersList -->
<g id="edge1" class="edge"><title>DescriptorRecord&#45;&gt;AllowableQualifiersList</title>
<path fill="none" stroke="Blue" d="M76.2129,-167.367C126.855,-184.612 211.006,-213.267 266.808,-232.269"/>
<polygon fill="Blue" stroke="Blue" points="265.945,-235.673 276.539,-235.583 268.201,-229.046 265.945,-235.673"/>
</g>
<!-- Annotation -->
<g id="node6" class="node"><title>Annotation</title>
<ellipse fill="none" stroke="Red" cx="109.043" cy="-87.5882" rx="50.0912" ry="18"/>
<text text-anchor="middle" x="109.043" y="-83.8882" font-family="Times,serif" font-size="14.00">Annotation</text>
</g>
<!-- DescriptorRecord&#45;&gt;Annotation -->
<g id="edge5" class="edge"><title>DescriptorRecord&#45;&gt;Annotation</title>
<path fill="none" stroke="Blue" d="M53.4372,-135.236C62.0707,-127.838 72.2654,-119.102 81.5521,-111.145"/>
<polygon fill="Blue" stroke="Blue" points="84.1012,-113.569 89.4174,-104.405 79.5464,-108.254 84.1012,-113.569"/>
</g>
<!-- ConceptList -->
<g id="node7" class="node"><title>ConceptList</title>
<ellipse fill="none" stroke="Red" cx="-66.5784" cy="106.067" rx="53.8905" ry="18"/>
<text text-anchor="middle" x="-66.5784" y="109.767" font-family="Times,serif" font-size="14.00">ConceptList</text>
</g>
<!-- DescriptorRecord&#45;&gt;ConceptList -->
<g id="edge6" class="edge"><title>DescriptorRecord&#45;&gt;ConceptList</title>
<path fill="none" stroke="Blue" d="M13.6805,-135.12C-6.94325,-115.144 -38.5752,-80.453 -53.3316,-43.3644 -69.1791,-3.53325 -70.1245,46.8512 -68.7791,77.7533"/>
<polygon fill="Blue" stroke="Blue" points="-65.2799,77.6457 -68.2284,87.822 -72.2694,78.0281 -65.2799,77.6457"/>
</g>
<!-- DateCreated -->
<g id="node23" class="node"><title>DateCreated</title>
<ellipse fill="none" stroke="Red" cx="19.1018" cy="23.6981" rx="54.6905" ry="18"/>
<text text-anchor="middle" x="19.1018" y="27.3981" font-family="Times,serif" font-size="14.00">DateCreated</text>
</g>
<!-- DescriptorRecord&#45;&gt;DateCreated -->
<g id="edge31" class="edge"><title>DescriptorRecord&#45;&gt;DateCreated</title>
<path fill="none" stroke="Blue" d="M40.2802,-134.593C48.0036,-112.995 58.5668,-75.733 53.8589,-43.4523 51.7454,-28.9607 44.8731,-14.3469 37.7911,-2.46957"/>
<polygon fill="Blue" stroke="Blue" points="40.7155,-0.545526 32.4099,6.03232 34.8007,-4.28926 40.7155,-0.545526"/>
</g>
<!-- ConsiderAlso -->
<g id="node29" class="node"><title>ConsiderAlso</title>
<ellipse fill="none" stroke="Red" cx="-110.54" cy="-110.585" rx="59.2899" ry="18"/>
<text text-anchor="middle" x="-110.54" y="-106.885" font-family="Times,serif" font-size="14.00">ConsiderAlso</text>
</g>
<!-- DescriptorRecord&#45;&gt;ConsiderAlso -->
<g id="edge30" class="edge"><title>DescriptorRecord&#45;&gt;ConsiderAlso</title>
<path fill="none" stroke="Blue" d="M-14.3442,-138.779C-28.2853,-134.693 -43.6179,-130.199 -57.8663,-126.023"/>
<polygon fill="Blue" stroke="Blue" points="-56.9461,-122.646 -67.5269,-123.192 -58.915,-129.363 -56.9461,-122.646"/>
</g>
<!-- DateEstablished -->
<g id="node30" class="node"><title>DateEstablished</title>
<ellipse fill="none" stroke="Red" cx="245.504" cy="-75.5036" rx="67.6881" ry="18"/>
<text text-anchor="middle" x="245.504" y="-71.8036" font-family="Times,serif" font-size="14.00">DateEstablished</text>
</g>
<!-- DescriptorRecord&#45;&gt;DateEstablished -->
<g id="edge32" class="edge"><title>DescriptorRecord&#45;&gt;DateEstablished</title>
<path fill="none" stroke="Blue" d="M74.29,-137.707C109.067,-125.072 158.951,-106.949 195.911,-93.5213"/>
<polygon fill="Blue" stroke="Blue" points="197.285,-96.7457 205.489,-90.0413 194.895,-90.1665 197.285,-96.7457"/>
</g>
<!-- DateRevised -->
<g id="node31" class="node"><title>DateRevised</title>
<ellipse fill="none" stroke="Red" cx="-123.798" cy="1.80871" rx="55.7903" ry="18"/>
<text text-anchor="middle" x="-123.798" y="5.50871" font-family="Times,serif" font-size="14.00">DateRevised</text>
</g>
<!-- DescriptorRecord&#45;&gt;DateRevised -->
<g id="edge33" class="edge"><title>DescriptorRecord&#45;&gt;DateRevised</title>
<path fill="none" stroke="Blue" d="M15.0848,-134.957C-12.9306,-107.369 -67.0474,-54.077 -98.825,-22.7838"/>
<polygon fill="Blue" stroke="Blue" points="-96.4311,-20.2291 -106.012,-15.7063 -101.343,-25.2167 -96.4311,-20.2291"/>
</g>
<!-- EntryCombinationList -->
<g id="node32" class="node"><title>EntryCombinationList</title>
<ellipse fill="none" stroke="Red" cx="26.7515" cy="-301.156" rx="90.1842" ry="18"/>
<text text-anchor="middle" x="26.7515" y="-297.456" font-family="Times,serif" font-size="14.00">EntryCombinationList</text>
</g>
<!-- DescriptorRecord&#45;&gt;EntryCombinationList -->
<g id="edge34" class="edge"><title>DescriptorRecord&#45;&gt;EntryCombinationList</title>
<path fill="none" stroke="Blue" d="M22.2671,-170.83C11.6097,-190.71 -2.68088,-223.788 0.308215,-253.946 1.00548,-260.981 3.57762,-267.959 6.86218,-274.306"/>
<polygon fill="Blue" stroke="Blue" points="3.94937,-276.257 12.0488,-283.087 9.97647,-272.697 3.94937,-276.257"/>
</g>
<!-- HistoryNote -->
<g id="node37" class="node"><title>HistoryNote</title>
<ellipse fill="none" stroke="Red" cx="176.179" cy="-163.81" rx="53.8905" ry="18"/>
<text text-anchor="middle" x="176.179" y="-160.11" font-family="Times,serif" font-size="14.00">HistoryNote</text>
</g>
<!-- DescriptorRecord&#45;&gt;HistoryNote -->
<g id="edge42" class="edge"><title>DescriptorRecord&#45;&gt;HistoryNote</title>
<path fill="none" stroke="Blue" d="M103.372,-158.147C106.765,-158.411 110.161,-158.675 113.531,-158.937"/>
<polygon fill="Blue" stroke="Blue" points="113.288,-162.428 123.529,-159.715 113.831,-155.449 113.288,-162.428"/>
</g>
<!-- NLMClassificationNumber -->
<g id="node38" class="node"><title>NLMClassificationNumber</title>
<ellipse fill="none" stroke="Red" cx="110.449" cy="-253.961" rx="108.581" ry="18"/>
<text text-anchor="middle" x="110.449" y="-250.261" font-family="Times,serif" font-size="14.00">NLMClassificationNumber</text>
</g>
<!-- DescriptorRecord&#45;&gt;NLMClassificationNumber -->
<g id="edge43" class="edge"><title>DescriptorRecord&#45;&gt;NLMClassificationNumber</title>
<path fill="none" stroke="Blue" d="M46.9126,-170.786C59.0147,-186.629 76.7444,-209.839 90.4017,-227.718"/>
<polygon fill="Blue" stroke="Blue" points="87.8847,-230.189 96.7365,-236.011 93.4475,-225.939 87.8847,-230.189"/>
</g>
<!-- OnlineNote -->
<g id="node39" class="node"><title>OnlineNote</title>
<ellipse fill="none" stroke="Red" cx="0.263659" cy="-43.4084" rx="51.9908" ry="18"/>
<text text-anchor="middle" x="0.263659" y="-39.7084" font-family="Times,serif" font-size="14.00">OnlineNote</text>
</g>
<!-- DescriptorRecord&#45;&gt;OnlineNote -->
<g id="edge44" class="edge"><title>DescriptorRecord&#45;&gt;OnlineNote</title>
<path fill="none" stroke="Blue" d="M27.6618,-134.635C22.4838,-117.394 14.6038,-91.1566 8.62171,-71.238"/>
<polygon fill="Blue" stroke="Blue" points="11.9193,-70.0497 5.6908,-61.479 5.21515,-72.0632 11.9193,-70.0497"/>
</g>
<!-- PharmacologicalActionList -->
<g id="node40" class="node"><title>PharmacologicalActionList</title>
<ellipse fill="none" stroke="Red" cx="-184.031" cy="-159.404" rx="107.781" ry="18"/>
<text text-anchor="middle" x="-184.031" y="-155.704" font-family="Times,serif" font-size="14.00">PharmacologicalActionList</text>
</g>
<!-- DescriptorRecord&#45;&gt;PharmacologicalActionList -->
<g id="edge45" class="edge"><title>DescriptorRecord&#45;&gt;PharmacologicalActionList</title>
<path fill="none" stroke="Blue" d="M-39.8182,-154.937C-48.7745,-155.215 -58.095,-155.503 -67.4958,-155.795"/>
<polygon fill="Blue" stroke="Blue" points="-67.8279,-152.303 -77.7147,-156.111 -67.6111,-159.3 -67.8279,-152.303"/>
</g>
<!-- PreviousIndexingList -->
<g id="node44" class="node"><title>PreviousIndexingList</title>
<ellipse fill="none" stroke="Red" cx="-247.646" cy="-66.5656" rx="86.3847" ry="18"/>
<text text-anchor="middle" x="-247.646" y="-62.8656" font-family="Times,serif" font-size="14.00">PreviousIndexingList</text>
</g>
<!-- DescriptorRecord&#45;&gt;PreviousIndexingList -->
<g id="edge50" class="edge"><title>DescriptorRecord&#45;&gt;PreviousIndexingList</title>
<path fill="none" stroke="Blue" d="M8.17434,-135.654C-11.5165,-122.998 -40.1506,-106.329 -67.492,-96.7567 -96.275,-86.6801 -128.854,-79.9137 -158.316,-75.3926"/>
<polygon fill="Blue" stroke="Blue" points="-158.194,-71.8731 -168.596,-73.8852 -159.21,-78.7991 -158.194,-71.8731"/>
</g>
<!-- PublicMeSHNote -->
<g id="node46" class="node"><title>PublicMeSHNote</title>
<ellipse fill="none" stroke="Red" cx="-79.5491" cy="-217.95" rx="73.387" ry="18"/>
<text text-anchor="middle" x="-79.5491" y="-214.25" font-family="Times,serif" font-size="14.00">PublicMeSHNote</text>
</g>
<!-- DescriptorRecord&#45;&gt;PublicMeSHNote -->
<g id="edge52" class="edge"><title>DescriptorRecord&#45;&gt;PublicMeSHNote</title>
<path fill="none" stroke="Blue" d="M4.36814,-169.319C-9.79717,-177.528 -27.058,-187.531 -42.2337,-196.325"/>
<polygon fill="Blue" stroke="Blue" points="-43.9916,-193.299 -50.8888,-201.341 -40.4817,-199.355 -43.9916,-193.299"/>
</g>
<!-- SeeRelatedList -->
<g id="node47" class="node"><title>SeeRelatedList</title>
<ellipse fill="none" stroke="Red" cx="202.644" cy="-310.822" rx="63.8893" ry="18"/>
<text text-anchor="middle" x="202.644" y="-307.122" font-family="Times,serif" font-size="14.00">SeeRelatedList</text>
</g>
<!-- DescriptorRecord&#45;&gt;SeeRelatedList -->
<g id="edge53" class="edge"><title>DescriptorRecord&#45;&gt;SeeRelatedList</title>
<path fill="none" stroke="Blue" d="M91.2514,-163.689C138.146,-176.255 199.614,-202.193 220.589,-253.977 224.424,-263.445 222.634,-274.063 218.986,-283.537"/>
<polygon fill="Blue" stroke="Blue" points="215.678,-282.352 214.67,-292.899 222.035,-285.283 215.678,-282.352"/>
</g>
<!-- TreeNumberList -->
<g id="node49" class="node"><title>TreeNumberList</title>
<ellipse fill="none" stroke="Red" cx="311.771" cy="-128.014" rx="69.5877" ry="18"/>
<text text-anchor="middle" x="311.771" y="-124.314" font-family="Times,serif" font-size="14.00">TreeNumberList</text>
</g>
<!-- DescriptorRecord&#45;&gt;TreeNumberList -->
<g id="edge56" class="edge"><title>DescriptorRecord&#45;&gt;TreeNumberList</title>
<path fill="none" stroke="Blue" d="M102.329,-146.55C142.837,-142.965 194.031,-138.434 235.666,-134.75"/>
<polygon fill="Blue" stroke="Blue" points="236.106,-138.224 245.758,-133.856 235.489,-131.252 236.106,-138.224"/>
</g>
<!-- AllowableQualifier -->
<g id="node3" class="node"><title>AllowableQualifier</title>
<ellipse fill="none" stroke="Red" cx="361.449" cy="-349.088" rx="79.0865" ry="18"/>
<text text-anchor="middle" x="361.449" y="-345.388" font-family="Times,serif" font-size="14.00">AllowableQualifier</text>
</g>
<!-- AllowableQualifiersList&#45;&gt;AllowableQualifier -->
<g id="edge2" class="edge"><title>AllowableQualifiersList&#45;&gt;AllowableQualifier</title>
<path fill="none" stroke="Blue" d="M330.457,-269.854C336.145,-284.395 344.18,-304.939 350.644,-321.464"/>
<polygon fill="Blue" stroke="Blue" points="347.528,-323.106 354.43,-331.144 354.047,-320.556 347.528,-323.106"/>
</g>
<!-- Abbreviation -->
<g id="node4" class="node"><title>Abbreviation</title>
<ellipse fill="none" stroke="Red" cx="447.843" cy="-128.444" rx="57.3905" ry="18"/>
<text text-anchor="middle" x="447.843" y="-124.744" font-family="Times,serif" font-size="14.00">Abbreviation</text>
</g>
<!-- AllowableQualifier&#45;&gt;Abbreviation -->
<g id="edge3" class="edge"><title>AllowableQualifier&#45;&gt;Abbreviation</title>
<path fill="none" stroke="Blue" d="M375.074,-331.038C388.663,-312.188 409.178,-281.294 421.066,-251.665 433.62,-220.376 440.76,-182.141 444.457,-156.639"/>
<polygon fill="Blue" stroke="Blue" points="447.95,-156.929 445.836,-146.547 441.014,-155.981 447.95,-156.929"/>
</g>
<!-- QualifierReferredTo -->
<g id="node5" class="node"><title>QualifierReferredTo</title>
<ellipse fill="none" stroke="Red" cx="55.4776" cy="-441.075" rx="83.3857" ry="18"/>
<text text-anchor="middle" x="55.4776" y="-437.375" font-family="Times,serif" font-size="14.00">QualifierReferredTo</text>
</g>
<!-- AllowableQualifier&#45;&gt;QualifierReferredTo -->
<g id="edge4" class="edge"><title>AllowableQualifier&#45;&gt;QualifierReferredTo</title>
<path fill="none" stroke="Blue" d="M313.641,-363.461C259.7,-379.678 171.948,-406.06 113.965,-423.491"/>
<polygon fill="Blue" stroke="Blue" points="112.782,-420.192 104.213,-426.423 114.798,-426.896 112.782,-420.192"/>
</g>
<!-- Concept -->
<g id="node8" class="node"><title>Concept</title>
<ellipse fill="none" stroke="Red" cx="30.9468" cy="302.147" rx="40.0939" ry="18"/>
<text text-anchor="middle" x="30.9468" y="305.847" font-family="Times,serif" font-size="14.00">Concept</text>
</g>
<!-- ConceptList&#45;&gt;Concept -->
<g id="edge7" class="edge"><title>ConceptList&#45;&gt;Concept</title>
<path fill="none" stroke="Blue" d="M-57.5783,124.163C-40.3346,158.832 -2.5644,234.771 17.6149,275.342"/>
<polygon fill="Blue" stroke="Blue" points="20.7897,273.866 22.1093,284.379 14.5221,276.984 20.7897,273.866"/>
</g>
<!-- CASN1Name -->
<g id="node9" class="node"><title>CASN1Name</title>
<ellipse fill="none" stroke="Red" cx="-53.5926" cy="416.393" rx="59.5901" ry="18"/>
<text text-anchor="middle" x="-53.5926" y="420.093" font-family="Times,serif" font-size="14.00">CASN1Name</text>
</g>
<!-- Concept&#45;&gt;CASN1Name -->
<g id="edge8" class="edge"><title>Concept&#45;&gt;CASN1Name</title>
<path fill="none" stroke="Blue" d="M18.1071,319.498C4.16111,338.345 -18.2698,368.658 -34.3291,390.36"/>
<polygon fill="Blue" stroke="Blue" points="-31.591,392.544 -40.3528,398.5 -37.218,388.38 -31.591,392.544"/>
</g>
<!-- ConceptName -->
<g id="node10" class="node"><title>ConceptName</title>
<ellipse fill="none" stroke="Red" cx="232.521" cy="366.674" rx="61.99" ry="18"/>
<text text-anchor="middle" x="232.521" y="370.374" font-family="Times,serif" font-size="14.00">ConceptName</text>
</g>
<!-- Concept&#45;&gt;ConceptName -->
<g id="edge9" class="edge"><title>Concept&#45;&gt;ConceptName</title>
<path fill="none" stroke="Blue" d="M63.7818,312.658C95.5283,322.82 144.111,338.373 181.009,350.184"/>
<polygon fill="Blue" stroke="Blue" points="182.143,346.872 190.6,353.254 180.009,353.539 182.143,346.872"/>
</g>
<!-- ConceptRelationList -->
<g id="node12" class="node"><title>ConceptRelationList</title>
<ellipse fill="none" stroke="Red" cx="159.873" cy="506.792" rx="83.3857" ry="18"/>
<text text-anchor="middle" x="159.873" y="510.492" font-family="Times,serif" font-size="14.00">ConceptRelationList</text>
</g>
<!-- Concept&#45;&gt;ConceptRelationList -->
<g id="edge11" class="edge"><title>Concept&#45;&gt;ConceptRelationList</title>
<path fill="none" stroke="Blue" d="M33.3308,320.398C37.2005,344.97 46.5585,389.331 66.8239,421.609 82.1085,445.955 106.179,467.727 126.009,483.166"/>
<polygon fill="Blue" stroke="Blue" points="128.356,480.553 134.21,489.384 124.127,486.131 128.356,480.553"/>
</g>
<!-- ConceptUI -->
<g id="node16" class="node"><title>ConceptUI</title>
<ellipse fill="none" stroke="Red" cx="10.4319" cy="464.396" rx="49.2915" ry="18"/>
<text text-anchor="middle" x="10.4319" y="468.096" font-family="Times,serif" font-size="14.00">ConceptUI</text>
</g>
<!-- Concept&#45;&gt;ConceptUI -->
<g id="edge15" class="edge"><title>Concept&#45;&gt;ConceptUI</title>
<path fill="none" stroke="Blue" d="M28.673,320.13C25.1147,348.272 18.202,402.944 13.9833,436.309"/>
<polygon fill="Blue" stroke="Blue" points="17.4428,436.85 12.7159,446.332 10.4981,435.972 17.4428,436.85"/>
</g>
<!-- RegistryNumber -->
<g id="node17" class="node"><title>RegistryNumber</title>
<ellipse fill="none" stroke="Red" cx="137.964" cy="421.417" rx="69.5877" ry="18"/>
<text text-anchor="middle" x="137.964" y="425.117" font-family="Times,serif" font-size="14.00">RegistryNumber</text>
</g>
<!-- Concept&#45;&gt;RegistryNumber -->
<g id="edge16" class="edge"><title>Concept&#45;&gt;RegistryNumber</title>
<path fill="none" stroke="Blue" d="M46.0528,318.982C64.0669,339.059 94.3541,372.814 115.208,396.055"/>
<polygon fill="Blue" stroke="Blue" points="117.813,393.718 121.887,403.499 112.603,398.393 117.813,393.718"/>
</g>
<!-- RelatedRegistryNumberList -->
<g id="node18" class="node"><title>RelatedRegistryNumberList</title>
<ellipse fill="none" stroke="Red" cx="-172.652" cy="460.417" rx="110.48" ry="18"/>
<text text-anchor="middle" x="-172.652" y="464.117" font-family="Times,serif" font-size="14.00">RelatedRegistryNumberList</text>
</g>
<!-- Concept&#45;&gt;RelatedRegistryNumberList -->
<g id="edge17" class="edge"><title>Concept&#45;&gt;RelatedRegistryNumberList</title>
<path fill="none" stroke="Blue" d="M10.6806,317.901C-25.0574,345.682 -99.4852,403.54 -141.693,436.35"/>
<polygon fill="Blue" stroke="Blue" points="-139.64,439.188 -149.683,442.562 -143.936,433.661 -139.64,439.188"/>
</g>
<!-- ScopeNote -->
<g id="node20" class="node"><title>ScopeNote</title>
<ellipse fill="none" stroke="Red" cx="-161.166" cy="369.475" rx="49.2915" ry="18"/>
<text text-anchor="middle" x="-161.166" y="373.175" font-family="Times,serif" font-size="14.00">ScopeNote</text>
</g>
<!-- Concept&#45;&gt;ScopeNote -->
<g id="edge19" class="edge"><title>Concept&#45;&gt;ScopeNote</title>
<path fill="none" stroke="Blue" d="M-0.776657,313.265C-32.1441,324.258 -80.4505,341.187 -115.855,353.595"/>
<polygon fill="Blue" stroke="Blue" points="-114.879,356.962 -125.474,356.966 -117.194,350.356 -114.879,356.962"/>
</g>
<!-- TermList -->
<g id="node21" class="node"><title>TermList</title>
<ellipse fill="none" stroke="Red" cx="232.697" cy="262.912" rx="44.393" ry="18"/>
<text text-anchor="middle" x="232.697" y="266.612" font-family="Times,serif" font-size="14.00">TermList</text>
</g>
<!-- Concept&#45;&gt;TermList -->
<g id="edge20" class="edge"><title>Concept&#45;&gt;TermList</title>
<path fill="none" stroke="Blue" d="M67.951,294.95C100.047,288.709 146.799,279.617 182.307,272.711"/>
<polygon fill="Blue" stroke="Blue" points="181.984,269.209 192.468,270.735 183.321,276.08 181.984,269.209"/>
</g>
<!-- String -->
<g id="node11" class="node"><title>String</title>
<ellipse fill="none" stroke="Red" cx="364.073" cy="262.892" rx="32.4942" ry="18"/>
<text text-anchor="middle" x="364.073" y="266.592" font-family="Times,serif" font-size="14.00">String</text>
</g>
<!-- ConceptName&#45;&gt;String -->
<g id="edge10" class="edge"><title>ConceptName&#45;&gt;String</title>
<path fill="none" stroke="Blue" d="M253.95,349.769C276.713,331.81 312.74,303.388 337.344,283.979"/>
<polygon fill="Blue" stroke="Blue" points="335.195,281.216 345.214,277.77 339.531,286.712 335.195,281.216"/>
</g>
<!-- ConceptRelation -->
<g id="node13" class="node"><title>ConceptRelation</title>
<ellipse fill="none" stroke="Red" cx="192.547" cy="681.309" rx="69.5877" ry="18"/>
<text text-anchor="middle" x="192.547" y="685.009" font-family="Times,serif" font-size="14.00">ConceptRelation</text>
</g>
<!-- ConceptRelationList&#45;&gt;ConceptRelation -->
<g id="edge12" class="edge"><title>ConceptRelationList&#45;&gt;ConceptRelation</title>
<path fill="none" stroke="Blue" d="M163.247,524.812C168.946,555.249 180.517,617.055 187.288,653.221"/>
<polygon fill="Blue" stroke="Blue" points="190.743,652.653 189.143,663.127 183.862,653.942 190.743,652.653"/>
</g>
<!-- Concept1UI -->
<g id="node14" class="node"><title>Concept1UI</title>
<ellipse fill="none" stroke="Red" cx="112.367" cy="849.802" rx="53.8905" ry="18"/>
<text text-anchor="middle" x="112.367" y="853.502" font-family="Times,serif" font-size="14.00">Concept1UI</text>
</g>
<!-- ConceptRelation&#45;&gt;Concept1UI -->
<g id="edge13" class="edge"><title>ConceptRelation&#45;&gt;Concept1UI</title>
<path fill="none" stroke="Blue" d="M183.967,699.341C169.86,728.984 141.694,788.174 125.205,822.823"/>
<polygon fill="Blue" stroke="Blue" points="128.343,824.374 120.886,831.9 122.022,821.367 128.343,824.374"/>
</g>
<!-- Concept2UI -->
<g id="node15" class="node"><title>Concept2UI</title>
<ellipse fill="none" stroke="Red" cx="335.504" cy="789.608" rx="53.8905" ry="18"/>
<text text-anchor="middle" x="335.504" y="793.308" font-family="Times,serif" font-size="14.00">Concept2UI</text>
</g>
<!-- ConceptRelation&#45;&gt;Concept2UI -->
<g id="edge14" class="edge"><title>ConceptRelation&#45;&gt;Concept2UI</title>
<path fill="none" stroke="Blue" d="M215.199,698.47C239.496,716.876 278.209,746.204 305.134,766.601"/>
<polygon fill="Blue" stroke="Blue" points="307.57,764.056 313.428,772.884 303.343,769.635 307.57,764.056"/>
</g>
<!-- RelatedRegistryNumber -->
<g id="node19" class="node"><title>RelatedRegistryNumber</title>
<ellipse fill="none" stroke="Red" cx="-276.691" cy="607.056" rx="96.6831" ry="18"/>
<text text-anchor="middle" x="-276.691" y="610.756" font-family="Times,serif" font-size="14.00">RelatedRegistryNumber</text>
</g>
<!-- RelatedRegistryNumberList&#45;&gt;RelatedRegistryNumber -->
<g id="edge18" class="edge"><title>RelatedRegistryNumberList&#45;&gt;RelatedRegistryNumber</title>
<path fill="none" stroke="Blue" d="M-185.409,478.398C-203.583,504.013 -237.043,551.174 -258.012,580.728"/>
<polygon fill="Blue" stroke="Blue" points="-255.189,582.798 -263.83,588.928 -260.898,578.747 -255.189,582.798"/>
</g>
<!-- Term -->
<g id="node22" class="node"><title>Term</title>
<ellipse fill="none" stroke="Red" cx="328.187" cy="86.4471" rx="30.5947" ry="18"/>
<text text-anchor="middle" x="328.187" y="90.1471" font-family="Times,serif" font-size="14.00">Term</text>
</g>
<!-- TermList&#45;&gt;Term -->
<g id="edge21" class="edge"><title>TermList&#45;&gt;Term</title>
<path fill="none" stroke="Blue" d="M242.379,245.02C259.31,213.731 294.364,148.953 314.025,112.619"/>
<polygon fill="Blue" stroke="Blue" points="311.066,110.733 318.904,103.604 317.223,114.064 311.066,110.733"/>
</g>
<!-- Term&#45;&gt;Abbreviation -->
<g id="edge22" class="edge"><title>Term&#45;&gt;Abbreviation</title>
<path fill="none" stroke="Blue" d="M337.777,69.2249C358.59,31.8462 408.031,-56.9444 432.947,-101.691"/>
<polygon fill="Blue" stroke="Blue" points="429.949,-103.503 437.872,-110.537 436.065,-100.097 429.949,-103.503"/>
</g>
<!-- Term&#45;&gt;String -->
<g id="edge26" class="edge"><title>Term&#45;&gt;String</title>
<path fill="none" stroke="Blue" d="M331.826,104.337C338.086,135.116 350.938,198.309 358.388,234.94"/>
<polygon fill="Blue" stroke="Blue" points="361.862,234.458 360.425,244.955 355.002,235.853 361.862,234.458"/>
</g>
<!-- Term&#45;&gt;DateCreated -->
<g id="edge23" class="edge"><title>Term&#45;&gt;DateCreated</title>
<path fill="none" stroke="Blue" d="M299.701,79.5772C270.823,72.7045 224.815,62.006 184.794,53.8192 149.384,46.5756 109.535,39.3039 77.7917,33.7204"/>
<polygon fill="Blue" stroke="Blue" points="77.0329,37.1409 67.7861,31.9691 78.2398,30.2457 77.0329,37.1409"/>
</g>
<!-- EntryVersion -->
<g id="node24" class="node"><title>EntryVersion</title>
<ellipse fill="none" stroke="Red" cx="501.156" cy="140.221" rx="57.6901" ry="18"/>
<text text-anchor="middle" x="501.156" y="143.921" font-family="Times,serif" font-size="14.00">EntryVersion</text>
</g>
<!-- Term&#45;&gt;EntryVersion -->
<g id="edge24" class="edge"><title>Term&#45;&gt;EntryVersion</title>
<path fill="none" stroke="Blue" d="M355.214,94.8492C380.592,102.739 419.208,114.744 450.345,124.424"/>
<polygon fill="Blue" stroke="Blue" points="451.655,121.166 460.165,127.477 449.577,127.85 451.655,121.166"/>
</g>
<!-- SortVersion -->
<g id="node25" class="node"><title>SortVersion</title>
<ellipse fill="none" stroke="Red" cx="483.739" cy="56.7184" rx="53.0913" ry="18"/>
<text text-anchor="middle" x="483.739" y="60.4184" font-family="Times,serif" font-size="14.00">SortVersion</text>
</g>
<!-- Term&#45;&gt;SortVersion -->
<g id="edge25" class="edge"><title>Term&#45;&gt;SortVersion</title>
<path fill="none" stroke="Blue" d="M357.446,80.8553C377.082,77.1024 403.589,72.0365 427.248,67.5148"/>
<polygon fill="Blue" stroke="Blue" points="426.706,64.0551 437.185,65.6156 428.02,70.9307 426.706,64.0551"/>
</g>
<!-- TermUI -->
<g id="node26" class="node"><title>TermUI</title>
<ellipse fill="none" stroke="Red" cx="467.973" cy="207.639" rx="39.7935" ry="18"/>
<text text-anchor="middle" x="467.973" y="211.339" font-family="Times,serif" font-size="14.00">TermUI</text>
</g>
<!-- Term&#45;&gt;TermUI -->
<g id="edge27" class="edge"><title>Term&#45;&gt;TermUI</title>
<path fill="none" stroke="Blue" d="M345.609,101.551C369.722,122.457 413.473,160.388 441.601,184.776"/>
<polygon fill="Blue" stroke="Blue" points="444.178,182.377 449.441,191.572 439.592,187.666 444.178,182.377"/>
</g>
<!-- ThesaurusIDlist -->
<g id="node27" class="node"><title>ThesaurusIDlist</title>
<ellipse fill="none" stroke="Red" cx="538.064" cy="9.97961" rx="66.8882" ry="18"/>
<text text-anchor="middle" x="538.064" y="13.6796" font-family="Times,serif" font-size="14.00">ThesaurusIDlist</text>
</g>
<!-- Term&#45;&gt;ThesaurusIDlist -->
<g id="edge28" class="edge"><title>Term&#45;&gt;ThesaurusIDlist</title>
<path fill="none" stroke="Blue" d="M354.059,76.6338C377.643,67.7246 413.467,54.2825 444.729,42.9285 458.506,37.925 473.464,32.5978 487.286,27.7182"/>
<polygon fill="Blue" stroke="Blue" points="486.523,24.2764 497.117,24.2552 488.848,30.8788 486.523,24.2764"/>
</g>
<!-- ThesaurusID -->
<g id="node28" class="node"><title>ThesaurusID</title>
<ellipse fill="none" stroke="Red" cx="726.828" cy="14.5505" rx="55.7903" ry="18"/>
<text text-anchor="middle" x="726.828" y="18.2505" font-family="Times,serif" font-size="14.00">ThesaurusID</text>
</g>
<!-- ThesaurusIDlist&#45;&gt;ThesaurusID -->
<g id="edge29" class="edge"><title>ThesaurusIDlist&#45;&gt;ThesaurusID</title>
<path fill="none" stroke="Blue" d="M604.881,11.5976C623.052,12.0376 642.717,12.5137 660.841,12.9526"/>
<polygon fill="Blue" stroke="Blue" points="661.108,9.45797 671.021,13.1991 660.939,16.4559 661.108,9.45797"/>
</g>
<!-- EntryCombination -->
<g id="node33" class="node"><title>EntryCombination</title>
<ellipse fill="none" stroke="Red" cx="-196.133" cy="-513.736" rx="76.8869" ry="18"/>
<text text-anchor="middle" x="-196.133" y="-510.036" font-family="Times,serif" font-size="14.00">EntryCombination</text>
</g>
<!-- EntryCombinationList&#45;&gt;EntryCombination -->
<g id="edge35" class="edge"><title>EntryCombinationList&#45;&gt;EntryCombination</title>
<path fill="none" stroke="Blue" d="M10.3564,-319.019C2.76682,-327.152 -6.44189,-336.831 -14.9779,-345.297 -68.1309,-398.012 -132.891,-457.035 -168.807,-489.334"/>
<polygon fill="Blue" stroke="Blue" points="-171.34,-486.904 -176.443,-496.189 -166.664,-492.113 -171.34,-486.904"/>
</g>
<!-- ECIN -->
<g id="node34" class="node"><title>ECIN</title>
<ellipse fill="none" stroke="Red" cx="16.95" cy="-545.228" rx="31.3957" ry="18"/>
<text text-anchor="middle" x="16.95" y="-541.528" font-family="Times,serif" font-size="14.00">ECIN</text>
</g>
<!-- EntryCombination&#45;&gt;ECIN -->
<g id="edge36" class="edge"><title>EntryCombination&#45;&gt;ECIN</title>
<path fill="none" stroke="Blue" d="M-146.401,-527.496C-123.072,-533.282 -94.7711,-539.351 -68.9066,-542.32 -54.6199,-543.96 -38.9153,-544.777 -24.8878,-545.158"/>
<polygon fill="Blue" stroke="Blue" points="-24.609,-548.665 -14.539,-545.372 -24.4647,-541.666 -24.609,-548.665"/>
</g>
<!-- ECOUT -->
<g id="node36" class="node"><title>ECOUT</title>
<ellipse fill="none" stroke="Red" cx="-68.6462" cy="-522.72" rx="40.0939" ry="18"/>
<text text-anchor="middle" x="-68.6462" y="-519.02" font-family="Times,serif" font-size="14.00">ECOUT</text>
</g>
<!-- EntryCombination&#45;&gt;ECOUT -->
<g id="edge39" class="edge"><title>EntryCombination&#45;&gt;ECOUT</title>
<path fill="none" stroke="Blue" d="M-122.342,-518.936C-121.159,-519.02 -119.979,-519.103 -118.807,-519.185"/>
<polygon fill="Blue" stroke="Blue" points="-118.693,-522.702 -108.472,-519.914 -118.201,-515.719 -118.693,-522.702"/>
</g>
<!-- ECIN&#45;&gt;QualifierReferredTo -->
<g id="edge38" class="edge"><title>ECIN&#45;&gt;QualifierReferredTo</title>
<path fill="none" stroke="Blue" d="M23.4857,-527.56C29.4547,-511.424 38.3748,-487.309 45.2808,-468.64"/>
<polygon fill="Blue" stroke="Blue" points="48.5935,-469.773 48.7804,-459.18 42.0283,-467.344 48.5935,-469.773"/>
</g>
<!-- DescriptorReferredTo -->
<g id="node35" class="node"><title>DescriptorReferredTo</title>
<ellipse fill="none" stroke="Red" cx="-104.968" cy="-345.164" rx="88.2844" ry="18"/>
<text text-anchor="middle" x="-104.968" y="-341.464" font-family="Times,serif" font-size="14.00">DescriptorReferredTo</text>
</g>
<!-- ECIN&#45;&gt;DescriptorReferredTo -->
<g id="edge37" class="edge"><title>ECIN&#45;&gt;DescriptorReferredTo</title>
<path fill="none" stroke="Blue" d="M6.55534,-528.171C-14.6982,-493.294 -63.2633,-413.6 -88.7192,-371.828"/>
<polygon fill="Blue" stroke="Blue" points="-85.8839,-369.755 -94.0766,-363.037 -91.8615,-373.398 -85.8839,-369.755"/>
</g>
<!-- DescriptorReferredTo&#45;&gt;DescriptorRecord -->
<g id="edge82" class="edge"><title>DescriptorReferredTo&#45;&gt;DescriptorRecord</title>
<path fill="none" stroke="Red" d="M-89.4542,-327.268C-68.9279,-303.213 -32.1223,-258.751 -4.50569,-217.984 3.77268,-205.763 12.0555,-191.628 18.7306,-179.641"/>
<polygon fill="Red" stroke="Red" points="21.9681,-181.016 23.7084,-170.565 15.8307,-177.65 21.9681,-181.016"/>
</g>
<!-- ECOUT&#45;&gt;QualifierReferredTo -->
<g id="edge41" class="edge"><title>ECOUT&#45;&gt;QualifierReferredTo</title>
<path fill="none" stroke="Blue" d="M-45.88,-507.745C-27.1803,-495.445 -0.394954,-477.826 20.9445,-463.79"/>
<polygon fill="Blue" stroke="Blue" points="22.9881,-466.635 29.4194,-458.215 19.1413,-460.787 22.9881,-466.635"/>
</g>
<!-- ECOUT&#45;&gt;DescriptorReferredTo -->
<g id="edge40" class="edge"><title>ECOUT&#45;&gt;DescriptorReferredTo</title>
<path fill="none" stroke="Blue" d="M-72.3288,-504.718C-78.665,-473.745 -91.6734,-410.154 -99.2141,-373.292"/>
<polygon fill="Blue" stroke="Blue" points="-95.8425,-372.31 -101.276,-363.214 -102.7,-373.713 -95.8425,-372.31"/>
</g>
<!-- PharmacologicalAction -->
<g id="node41" class="node"><title>PharmacologicalAction</title>
<ellipse fill="none" stroke="Red" cx="-472.759" cy="-357.938" rx="94.4839" ry="18"/>
<text text-anchor="middle" x="-472.759" y="-354.238" font-family="Times,serif" font-size="14.00">PharmacologicalAction</text>
</g>
<!-- PharmacologicalActionList&#45;&gt;PharmacologicalAction -->
<g id="edge46" class="edge"><title>PharmacologicalActionList&#45;&gt;PharmacologicalAction</title>
<path fill="none" stroke="Blue" d="M-209.653,-177.023C-261.769,-212.858 -380.127,-294.243 -438.668,-334.497"/>
<polygon fill="Blue" stroke="Blue" points="-440.936,-331.809 -447.193,-340.359 -436.97,-337.577 -440.936,-331.809"/>
</g>
<!-- PharmacologicalAction&#45;&gt;DescriptorReferredTo -->
<g id="edge47" class="edge"><title>PharmacologicalAction&#45;&gt;DescriptorReferredTo</title>
<path fill="none" stroke="Blue" d="M-379.95,-354.715C-325.759,-352.833 -257.451,-350.46 -202.474,-348.551"/>
<polygon fill="Blue" stroke="Blue" points="-202.242,-352.045 -192.37,-348.2 -202.485,-345.049 -202.242,-352.045"/>
</g>
<!-- PharmacologicalActionSubstanceList -->
<g id="node42" class="node"><title>PharmacologicalActionSubstanceList</title>
<ellipse fill="none" stroke="Red" cx="-597.823" cy="-456.997" rx="143.775" ry="18"/>
<text text-anchor="middle" x="-597.823" y="-453.297" font-family="Times,serif" font-size="14.00">PharmacologicalActionSubstanceList</text>
</g>
<!-- PharmacologicalAction&#45;&gt;PharmacologicalActionSubstanceList -->
<g id="edge48" class="edge"><title>PharmacologicalAction&#45;&gt;PharmacologicalActionSubstanceList</title>
<path fill="none" stroke="Blue" d="M-495.118,-375.648C-515.267,-391.607 -545.066,-415.21 -567.384,-432.887"/>
<polygon fill="Blue" stroke="Blue" points="-569.57,-430.154 -575.236,-439.107 -565.224,-435.641 -569.57,-430.154"/>
</g>
<!-- Substance -->
<g id="node43" class="node"><title>Substance</title>
<ellipse fill="none" stroke="Red" cx="-725.376" cy="-550.743" rx="46.2923" ry="18"/>
<text text-anchor="middle" x="-725.376" y="-547.043" font-family="Times,serif" font-size="14.00">Substance</text>
</g>
<!-- PharmacologicalActionSubstanceList&#45;&gt;Substance -->
<g id="edge49" class="edge"><title>PharmacologicalActionSubstanceList&#45;&gt;Substance</title>
<path fill="none" stroke="Blue" d="M-622.115,-474.851C-643.01,-490.207 -673.226,-512.415 -695.578,-528.843"/>
<polygon fill="Blue" stroke="Blue" points="-697.739,-526.087 -703.724,-534.829 -693.593,-531.728 -697.739,-526.087"/>
</g>
<!-- PreviousIndexing -->
<g id="node45" class="node"><title>PreviousIndexing</title>
<ellipse fill="none" stroke="Red" cx="-566.754" cy="-132.67" rx="72.5877" ry="18"/>
<text text-anchor="middle" x="-566.754" y="-128.97" font-family="Times,serif" font-size="14.00">PreviousIndexing</text>
</g>
<!-- PreviousIndexingList&#45;&gt;PreviousIndexing -->
<g id="edge51" class="edge"><title>PreviousIndexingList&#45;&gt;PreviousIndexing</title>
<path fill="none" stroke="Blue" d="M-309.174,-79.3111C-364.188,-90.7076 -444.589,-107.363 -500.889,-119.026"/>
<polygon fill="Blue" stroke="Blue" points="-501.677,-115.614 -510.759,-121.07 -500.257,-122.469 -501.677,-115.614"/>
</g>
<!-- SeeRelatedDescriptor -->
<g id="node48" class="node"><title>SeeRelatedDescriptor</title>
<ellipse fill="none" stroke="Red" cx="128.001" cy="-491.479" rx="87.1846" ry="18"/>
<text text-anchor="middle" x="128.001" y="-487.779" font-family="Times,serif" font-size="14.00">SeeRelatedDescriptor</text>
</g>
<!-- SeeRelatedList&#45;&gt;SeeRelatedDescriptor -->
<g id="edge54" class="edge"><title>SeeRelatedList&#45;&gt;SeeRelatedDescriptor</title>
<path fill="none" stroke="Blue" d="M195.214,-328.805C182.114,-360.511 154.834,-426.535 139.359,-463.989"/>
<polygon fill="Blue" stroke="Blue" points="136.095,-462.722 135.511,-473.301 142.565,-465.396 136.095,-462.722"/>
</g>
<!-- SeeRelatedDescriptor&#45;&gt;DescriptorReferredTo -->
<g id="edge55" class="edge"><title>SeeRelatedDescriptor&#45;&gt;DescriptorReferredTo</title>
<path fill="none" stroke="Blue" d="M56.6477,-481.072C27.3667,-473.837 -5.23534,-461.616 -29.3145,-441.006 -52.8831,-420.834 -74.2283,-392.405 -88.1901,-371.751"/>
<polygon fill="Blue" stroke="Blue" points="-85.4486,-369.551 -93.8866,-363.144 -91.2858,-373.415 -85.4486,-369.551"/>
</g>
<!-- SupplementalRecord -->
<g id="node50" class="node"><title>SupplementalRecord</title>
<ellipse fill="none" stroke="Red" cx="-258.13" cy="55.0317" rx="85.2851" ry="18"/>
<text text-anchor="middle" x="-258.13" y="58.7317" font-family="Times,serif" font-size="14.00">SupplementalRecord</text>
</g>
<!-- SupplementalRecord&#45;&gt;ConceptList -->
<g id="edge57" class="edge"><title>SupplementalRecord&#45;&gt;ConceptList</title>
<path fill="none" stroke="Blue" d="M-205.027,69.1802C-178.126,76.3474 -145.58,85.0188 -118.804,92.1528"/>
<polygon fill="Blue" stroke="Blue" points="-117.61,88.8488 -108.848,94.8054 -119.412,95.6128 -117.61,88.8488"/>
</g>
<!-- SupplementalRecord&#45;&gt;DateCreated -->
<g id="edge58" class="edge"><title>SupplementalRecord&#45;&gt;DateCreated</title>
<path fill="none" stroke="Blue" d="M-182.742,46.511C-138.748,41.5387 -83.9407,35.3443 -42.5436,30.6654"/>
<polygon fill="Blue" stroke="Blue" points="-42.9206,27.1859 -32.5908,29.5405 -42.1344,34.1416 -42.9206,27.1859"/>
</g>
<!-- SupplementalRecord&#45;&gt;DateRevised -->
<g id="edge59" class="edge"><title>SupplementalRecord&#45;&gt;DateRevised</title>
<path fill="none" stroke="Blue" d="M-217.826,39.063C-202.339,32.9267 -184.569,25.8864 -168.677,19.59"/>
<polygon fill="Blue" stroke="Blue" points="-169.648,16.2101 -159.062,15.7805 -167.07,22.7179 -169.648,16.2101"/>
</g>
<!-- SupplementalRecord&#45;&gt;PharmacologicalActionList -->
<g id="edge70" class="edge"><title>SupplementalRecord&#45;&gt;PharmacologicalActionList</title>
<path fill="none" stroke="Blue" d="M-234.585,37.6056C-208.585,16.4411 -169.131,-22.0213 -159.606,-66.6925 -155.4,-86.417 -166.144,-91.0398 -171.285,-110.542 -173.045,-117.218 -174.928,-124.41 -176.692,-131.17"/>
<polygon fill="Blue" stroke="Blue" points="-180.197,-130.739 -179.332,-141.299 -173.423,-132.504 -180.197,-130.739"/>
</g>
<!-- SupplementalRecord&#45;&gt;PreviousIndexingList -->
<g id="edge71" class="edge"><title>SupplementalRecord&#45;&gt;PreviousIndexingList</title>
<path fill="none" stroke="Blue" d="M-256.561,36.8273C-254.855,17.0378 -252.105,-14.8507 -250.11,-37.9863"/>
<polygon fill="Blue" stroke="Blue" points="-253.573,-38.5744 -249.227,-48.2368 -246.599,-37.9731 -253.573,-38.5744"/>
</g>
<!-- Frequency -->
<g id="node51" class="node"><title>Frequency</title>
<ellipse fill="none" stroke="Red" cx="-467.142" cy="92.9861" rx="48.1917" ry="18"/>
<text text-anchor="middle" x="-467.142" y="96.6861" font-family="Times,serif" font-size="14.00">Frequency</text>
</g>
<!-- SupplementalRecord&#45;&gt;Frequency -->
<g id="edge60" class="edge"><title>SupplementalRecord&#45;&gt;Frequency</title>
<path fill="none" stroke="Blue" d="M-322.832,66.7808C-351.982,72.0742 -385.99,78.2498 -413.669,83.276"/>
<polygon fill="Blue" stroke="Blue" points="-413.095,86.7289 -423.559,85.072 -414.346,79.8415 -413.095,86.7289"/>
</g>
<!-- HeadingMappedToList -->
<g id="node52" class="node"><title>HeadingMappedToList</title>
<ellipse fill="none" stroke="Red" cx="-392.977" cy="-136.198" rx="92.8835" ry="18"/>
<text text-anchor="middle" x="-392.977" y="-132.498" font-family="Times,serif" font-size="14.00">HeadingMappedToList</text>
</g>
<!-- SupplementalRecord&#45;&gt;HeadingMappedToList -->
<g id="edge61" class="edge"><title>SupplementalRecord&#45;&gt;HeadingMappedToList</title>
<path fill="none" stroke="Blue" d="M-269.854,37.0278C-285.586,13.0227 -314.568,-30.6713 -340.625,-67.0797 -350.974,-81.5395 -362.919,-97.3712 -372.784,-110.23"/>
<polygon fill="Blue" stroke="Blue" points="-375.598,-108.149 -378.928,-118.207 -370.053,-112.42 -375.598,-108.149"/>
</g>
<!-- IndexingInformationList -->
<g id="node54" class="node"><title>IndexingInformationList</title>
<ellipse fill="none" stroke="Red" cx="-440.364" cy="-66.9224" rx="98.2828" ry="18"/>
<text text-anchor="middle" x="-440.364" y="-63.2224" font-family="Times,serif" font-size="14.00">IndexingInformationList</text>
</g>
<!-- SupplementalRecord&#45;&gt;IndexingInformationList -->
<g id="edge65" class="edge"><title>SupplementalRecord&#45;&gt;IndexingInformationList</title>
<path fill="none" stroke="Blue" d="M-283.853,37.8173C-315.69,16.5114 -370.04,-19.8604 -405.577,-43.6425"/>
<polygon fill="Blue" stroke="Blue" points="-407.817,-40.9303 -414.181,-49.4007 -403.924,-46.7477 -407.817,-40.9303"/>
</g>
<!-- Note -->
<g id="node56" class="node"><title>Note</title>
<ellipse fill="none" stroke="Red" cx="-366.173" cy="195.936" rx="27.8951" ry="18"/>
<text text-anchor="middle" x="-366.173" y="199.636" font-family="Times,serif" font-size="14.00">Note</text>
</g>
<!-- SupplementalRecord&#45;&gt;Note -->
<g id="edge69" class="edge"><title>SupplementalRecord&#45;&gt;Note</title>
<path fill="none" stroke="Blue" d="M-271.814,72.8773C-290.957,97.8427 -325.8,143.284 -347.369,171.413"/>
<polygon fill="Blue" stroke="Blue" points="-344.742,173.739 -353.604,179.545 -350.297,169.479 -344.742,173.739"/>
</g>
<!-- SourceList -->
<g id="node57" class="node"><title>SourceList</title>
<ellipse fill="none" stroke="Red" cx="-467.427" cy="161.4" rx="48.9926" ry="18"/>
<text text-anchor="middle" x="-467.427" y="165.1" font-family="Times,serif" font-size="14.00">SourceList</text>
</g>
<!-- SupplementalRecord&#45;&gt;SourceList -->
<g id="edge72" class="edge"><title>SupplementalRecord&#45;&gt;SourceList</title>
<path fill="none" stroke="Blue" d="M-290.833,71.6517C-328.405,90.7466 -389.959,122.03 -429.574,142.162"/>
<polygon fill="Blue" stroke="Blue" points="-428.154,145.367 -438.654,146.777 -431.325,139.126 -428.154,145.367"/>
</g>
<!-- HeadingMappedTo -->
<g id="node53" class="node"><title>HeadingMappedTo</title>
<ellipse fill="none" stroke="Red" cx="-288.698" cy="-396.599" rx="79.0865" ry="18"/>
<text text-anchor="middle" x="-288.698" y="-392.899" font-family="Times,serif" font-size="14.00">HeadingMappedTo</text>
</g>
<!-- HeadingMappedToList&#45;&gt;HeadingMappedTo -->
<g id="edge62" class="edge"><title>HeadingMappedToList&#45;&gt;HeadingMappedTo</title>
<path fill="none" stroke="Blue" d="M-395.121,-154.291C-398.414,-189.341 -401.55,-267.995 -371.995,-324.285 -361.534,-344.211 -343.124,-361.081 -326.268,-373.503"/>
<polygon fill="Blue" stroke="Blue" points="-327.834,-376.681 -317.645,-379.585 -323.799,-370.961 -327.834,-376.681"/>
</g>
<!-- HeadingMappedTo&#45;&gt;QualifierReferredTo -->
<g id="edge64" class="edge"><title>HeadingMappedTo&#45;&gt;QualifierReferredTo</title>
<path fill="none" stroke="Blue" d="M-219.463,-405.546C-163.608,-412.764 -84.9202,-422.932 -26.0284,-430.542"/>
<polygon fill="Blue" stroke="Blue" points="-26.3806,-434.026 -16.0145,-431.836 -25.4834,-427.084 -26.3806,-434.026"/>
</g>
<!-- HeadingMappedTo&#45;&gt;DescriptorReferredTo -->
<g id="edge63" class="edge"><title>HeadingMappedTo&#45;&gt;DescriptorReferredTo</title>
<path fill="none" stroke="Blue" d="M-238.493,-382.544C-216.367,-376.35 -190.15,-369.011 -166.83,-362.483"/>
<polygon fill="Blue" stroke="Blue" points="-165.72,-365.807 -157.034,-359.74 -167.607,-359.066 -165.72,-365.807"/>
</g>
<!-- IndexingInformation -->
<g id="node55" class="node"><title>IndexingInformation</title>
<ellipse fill="none" stroke="Red" cx="-285.904" cy="-324.375" rx="84.485" ry="18"/>
<text text-anchor="middle" x="-285.904" y="-320.675" font-family="Times,serif" font-size="14.00">IndexingInformation</text>
</g>
<!-- IndexingInformationList&#45;&gt;IndexingInformation -->
<g id="edge66" class="edge"><title>IndexingInformationList&#45;&gt;IndexingInformation</title>
<path fill="none" stroke="Blue" d="M-379.537,-81.1003C-349.932,-91.3209 -316.836,-108.4 -298.439,-136.354 -294.126,-142.907 -289.237,-245.239 -287.058,-296.11"/>
<polygon fill="Blue" stroke="Blue" points="-290.554,-296.287 -286.635,-306.131 -283.56,-295.992 -290.554,-296.287"/>
</g>
<!-- IndexingInformation&#45;&gt;QualifierReferredTo -->
<g id="edge68" class="edge"><title>IndexingInformation&#45;&gt;QualifierReferredTo</title>
<path fill="none" stroke="Blue" d="M-240.923,-339.751C-178.454,-361.106 -65.5758,-399.693 1.40215,-422.589"/>
<polygon fill="Blue" stroke="Blue" points="0.345071,-425.927 10.9396,-425.85 2.6094,-419.303 0.345071,-425.927"/>
</g>
<!-- IndexingInformation&#45;&gt;DescriptorReferredTo -->
<g id="edge67" class="edge"><title>IndexingInformation&#45;&gt;DescriptorReferredTo</title>
<path fill="none" stroke="Blue" d="M-211.527,-332.921C-205.131,-333.656 -198.623,-334.403 -192.139,-335.148"/>
<polygon fill="Blue" stroke="Blue" points="-192.32,-338.65 -181.986,-336.315 -191.521,-331.696 -192.32,-338.65"/>
</g>
<!-- Source -->
<g id="node58" class="node"><title>Source</title>
<ellipse fill="none" stroke="Red" cx="-653.632" cy="215.869" rx="35.194" ry="18"/>
<text text-anchor="middle" x="-653.632" y="219.569" font-family="Times,serif" font-size="14.00">Source</text>
</g>
<!-- SourceList&#45;&gt;Source -->
<g id="edge73" class="edge"><title>SourceList&#45;&gt;Source</title>
<path fill="none" stroke="Blue" d="M-506.009,172.686C-537.344,181.853 -581.403,194.741 -613.221,204.048"/>
<polygon fill="Blue" stroke="Blue" points="-612.509,207.486 -623.089,206.935 -614.474,200.768 -612.509,207.486"/>
</g>
<!-- QualifierRecord -->
<g id="node59" class="node"><title>QualifierRecord</title>
<ellipse fill="none" stroke="Red" cx="136.047" cy="67.7295" rx="67.6881" ry="18"/>
<text text-anchor="middle" x="136.047" y="71.4295" font-family="Times,serif" font-size="14.00">QualifierRecord</text>
</g>
<!-- QualifierRecord&#45;&gt;Annotation -->
<g id="edge74" class="edge"><title>QualifierRecord&#45;&gt;Annotation</title>
<path fill="none" stroke="Blue" d="M132.897,49.6086C128.222,22.7201 119.409,-27.9668 113.903,-59.6343"/>
<polygon fill="Blue" stroke="Blue" points="110.438,-59.1309 112.173,-69.5827 117.335,-60.3301 110.438,-59.1309"/>
</g>
<!-- QualifierRecord&#45;&gt;ConceptList -->
<g id="edge75" class="edge"><title>QualifierRecord&#45;&gt;ConceptList</title>
<path fill="none" stroke="Blue" d="M80.679,78.2055C52.7107,83.4972 18.8159,89.9103 -9.40143,95.2492"/>
<polygon fill="Blue" stroke="Blue" points="-9.04253,98.7433 -19.5189,97.1634 -10.3439,91.8653 -9.04253,98.7433"/>
</g>
<!-- QualifierRecord&#45;&gt;DateCreated -->
<g id="edge76" class="edge"><title>QualifierRecord&#45;&gt;DateCreated</title>
<path fill="none" stroke="Blue" d="M96.7809,52.9452C86.5186,49.0813 75.3685,44.8832 64.8031,40.9052"/>
<polygon fill="Blue" stroke="Blue" points="63.4323,44.129 55.307,37.3298 65.8989,37.578 63.4323,44.129"/>
</g>
<!-- QualifierRecord&#45;&gt;DateEstablished -->
<g id="edge77" class="edge"><title>QualifierRecord&#45;&gt;DateEstablished</title>
<path fill="none" stroke="Blue" d="M149.689,49.8785C168.779,24.8972 203.587,-20.6524 225.58,-49.4313"/>
<polygon fill="Blue" stroke="Blue" points="222.838,-51.6072 231.69,-57.4277 228.399,-47.3569 222.838,-51.6072"/>
</g>
<!-- QualifierRecord&#45;&gt;DateRevised -->
<g id="edge78" class="edge"><title>QualifierRecord&#45;&gt;DateRevised</title>
<path fill="none" stroke="Blue" d="M77.628,58.543C48.0148,53.3692 11.6253,46.217 -20.4433,37.6237 -39.6349,32.4809 -60.4028,25.5597 -78.2531,19.1726"/>
<polygon fill="Blue" stroke="Blue" points="-79.6345,22.3947 -87.8412,15.6939 -77.247,15.8144 -79.6345,22.3947"/>
</g>
<!-- QualifierRecord&#45;&gt;HistoryNote -->
<g id="edge79" class="edge"><title>QualifierRecord&#45;&gt;HistoryNote</title>
<path fill="none" stroke="Blue" d="M139.196,49.561C146.171,9.3215 162.961,-87.5513 171.304,-135.686"/>
<polygon fill="Blue" stroke="Blue" points="167.888,-136.47 173.045,-145.726 174.785,-135.275 167.888,-136.47"/>
</g>
<!-- QualifierRecord&#45;&gt;OnlineNote -->
<g id="edge80" class="edge"><title>QualifierRecord&#45;&gt;OnlineNote</title>
<path fill="none" stroke="Blue" d="M115.129,50.6078C91.903,31.5976 54.2913,0.812758 28.4747,-20.3179"/>
<polygon fill="Blue" stroke="Blue" points="26.0618,-17.7699 20.5403,-26.8122 30.4955,-23.1868 26.0618,-17.7699"/>
</g>
<!-- QualifierRecord&#45;&gt;TreeNumberList -->
<g id="edge81" class="edge"><title>QualifierRecord&#45;&gt;TreeNumberList</title>
<path fill="none" stroke="Blue" d="M170.996,52.3014C214.53,30.8522 286.6,-12.5789 314.697,-75.5853 318.002,-82.9955 318.655,-91.5901 318.101,-99.6499"/>
<polygon fill="Blue" stroke="Blue" points="314.6,-99.4284 316.798,-109.793 321.543,-100.32 314.6,-99.4284"/>
</g>
</g>
</svg>
