<?xml version="1.0" encoding="UTF-8" standalone="no"?>
<!DOCTYPE svg PUBLIC "-//W3C//DTD SVG 1.1//EN"
 "http://www.w3.org/Graphics/SVG/1.1/DTD/svg11.dtd">
<!-- Generated by graphviz version 2.38.0 (20140413.2041)
 -->
<!-- Title: foo Pages: 1 -->
<svg width="1479pt" height="1453pt"
 viewBox="0.00 0.00 1478.88 1453.43" xmlns="http://www.w3.org/2000/svg" xmlns:xlink="http://www.w3.org/1999/xlink">
<g id="graph0" class="graph" transform="scale(1 1) rotate(0) translate(729.432 609.544)">
<title>foo</title>
<polygon fill="white" stroke="none" points="-729.432,843.883 -729.432,-609.544 749.448,-609.544 749.448,843.883 -729.432,843.883"/>
<!-- DescriptorRecord -->
<g id="node1" class="node"><title>DescriptorRecord</title>
<ellipse fill="none" stroke="Red" cx="90.8521" cy="-92.942" rx="73.387" ry="18"/>
<text text-anchor="middle" x="90.8521" y="-89.242" font-family="Times,serif" font-size="14.00">DescriptorRecord</text>
</g>
<!-- AllowableQualifiersList -->
<g id="node2" class="node"><title>AllowableQualifiersList</title>
<ellipse fill="none" stroke="Red" cx="139.134" cy="-257.734" rx="96.3833" ry="18"/>
<text text-anchor="middle" x="139.134" y="-254.034" font-family="Times,serif" font-size="14.00">AllowableQualifiersList</text>
</g>
<!-- DescriptorRecord&#45;&gt;AllowableQualifiersList -->
<g id="edge1" class="edge"><title>DescriptorRecord&#45;&gt;AllowableQualifiersList</title>
<path fill="none" stroke="Blue" d="M92.6194,-111.151C95.1694,-133.607 100.827,-172.72 111.772,-204.628 114.772,-213.372 118.999,-222.464 123.236,-230.602"/>
<polygon fill="Blue" stroke="Blue" points="120.294,-232.52 128.141,-239.64 126.447,-229.181 120.294,-232.52"/>
</g>
<!-- Annotation -->
<g id="node6" class="node"><title>Annotation</title>
<ellipse fill="none" stroke="Red" cx="119.658" cy="-48.9316" rx="50.0912" ry="18"/>
<text text-anchor="middle" x="119.658" y="-45.2316" font-family="Times,serif" font-size="14.00">Annotation</text>
</g>
<!-- DescriptorRecord&#45;&gt;Annotation -->
<g id="edge5" class="edge"><title>DescriptorRecord&#45;&gt;Annotation</title>
<path fill="none" stroke="Blue" d="M102.569,-75.0413C102.625,-74.955 102.682,-74.8687 102.738,-74.7822"/>
<polygon fill="Blue" stroke="Blue" points="105.497,-76.9576 108.046,-66.6738 99.6405,-73.124 105.497,-76.9576"/>
</g>
<!-- ConceptList -->
<g id="node7" class="node"><title>ConceptList</title>
<ellipse fill="none" stroke="Red" cx="-44.651" cy="119.014" rx="53.8905" ry="18"/>
<text text-anchor="middle" x="-44.651" y="122.714" font-family="Times,serif" font-size="14.00">ConceptList</text>
</g>
<!-- DescriptorRecord&#45;&gt;ConceptList -->
<g id="edge6" class="edge"><title>DescriptorRecord&#45;&gt;ConceptList</title>
<path fill="none" stroke="Blue" d="M80.4178,-74.8424C76.1791,-66.9918 71.4761,-57.5855 68.0155,-48.736 60.9962,-30.786 65.278,-24.0866 56.5031,-6.9263 36.4564,32.2769 2.95021,70.7653 -19.9651,94.6693"/>
<polygon fill="Blue" stroke="Blue" points="-17.5198,97.1751 -27.0026,101.9 -22.5363,92.2929 -17.5198,97.1751"/>
</g>
<!-- DateCreated -->
<g id="node23" class="node"><title>DateCreated</title>
<ellipse fill="none" stroke="Red" cx="103.4" cy="37.1342" rx="54.6905" ry="18"/>
<text text-anchor="middle" x="103.4" y="40.8342" font-family="Times,serif" font-size="14.00">DateCreated</text>
</g>
<!-- DescriptorRecord&#45;&gt;DateCreated -->
<g id="edge31" class="edge"><title>DescriptorRecord&#45;&gt;DateCreated</title>
<path fill="none" stroke="Blue" d="M77.1814,-75.0465C72.5434,-67.3807 68.4164,-58.0567 68.0155,-48.736 67.112,-27.7286 76.3108,-5.84122 85.5542,10.5784"/>
<polygon fill="Blue" stroke="Blue" points="88.7999,9.18682 90.9256,19.5662 82.7912,12.7779 88.7999,9.18682"/>
</g>
<!-- ConsiderAlso -->
<g id="node29" class="node"><title>ConsiderAlso</title>
<ellipse fill="none" stroke="Red" cx="-50.7066" cy="-131.97" rx="59.2899" ry="18"/>
<text text-anchor="middle" x="-50.7066" y="-128.27" font-family="Times,serif" font-size="14.00">ConsiderAlso</text>
</g>
<!-- DescriptorRecord&#45;&gt;ConsiderAlso -->
<g id="edge30" class="edge"><title>DescriptorRecord&#45;&gt;ConsiderAlso</title>
<path fill="none" stroke="Blue" d="M41.739,-106.483C29.389,-109.888 16.065,-113.561 3.48231,-117.03"/>
<polygon fill="Blue" stroke="Blue" points="2.29296,-113.727 -6.41708,-119.76 4.15353,-120.476 2.29296,-113.727"/>
</g>
<!-- DateEstablished -->
<g id="node30" class="node"><title>DateEstablished</title>
<ellipse fill="none" stroke="Red" cx="245.308" cy="-16.5505" rx="67.6881" ry="18"/>
<text text-anchor="middle" x="245.308" y="-12.8505" font-family="Times,serif" font-size="14.00">DateEstablished</text>
</g>
<!-- DescriptorRecord&#45;&gt;DateEstablished -->
<g id="edge32" class="edge"><title>DescriptorRecord&#45;&gt;DateEstablished</title>
<path fill="none" stroke="Blue" d="M126.051,-77.0315C135.737,-72.5574 146.216,-67.6282 155.811,-62.9285 172.21,-54.8963 190.109,-45.707 205.561,-37.6382"/>
<polygon fill="Blue" stroke="Blue" points="207.598,-40.522 214.83,-32.7794 204.348,-34.3221 207.598,-40.522"/>
</g>
<!-- DateRevised -->
<g id="node31" class="node"><title>DateRevised</title>
<ellipse fill="none" stroke="Red" cx="-113.431" cy="2.88901" rx="55.7903" ry="18"/>
<text text-anchor="middle" x="-113.431" y="6.58901" font-family="Times,serif" font-size="14.00">DateRevised</text>
</g>
<!-- DescriptorRecord&#45;&gt;DateRevised -->
<g id="edge33" class="edge"><title>DescriptorRecord&#45;&gt;DateRevised</title>
<path fill="none" stroke="Blue" d="M56.6598,-76.902C21.1635,-60.2504 -34.3701,-34.199 -72.2555,-16.4266"/>
<polygon fill="Blue" stroke="Blue" points="-70.9444,-13.1757 -81.4842,-12.0973 -73.9173,-19.5131 -70.9444,-13.1757"/>
</g>
<!-- EntryCombinationList -->
<g id="node32" class="node"><title>EntryCombinationList</title>
<ellipse fill="none" stroke="Red" cx="115.801" cy="-309.932" rx="90.1842" ry="18"/>
<text text-anchor="middle" x="115.801" y="-306.232" font-family="Times,serif" font-size="14.00">EntryCombinationList</text>
</g>
<!-- DescriptorRecord&#45;&gt;EntryCombinationList -->
<g id="edge34" class="edge"><title>DescriptorRecord&#45;&gt;EntryCombinationList</title>
<path fill="none" stroke="Blue" d="M82.5195,-110.996C66.0599,-147.692 31.7646,-229.855 41.3462,-257.568 45.7491,-270.303 55.4788,-280.364 66.4984,-288.119"/>
<polygon fill="Blue" stroke="Blue" points="64.7954,-291.184 75.1097,-293.606 68.5571,-285.28 64.7954,-291.184"/>
</g>
<!-- HistoryNote -->
<g id="node37" class="node"><title>HistoryNote</title>
<ellipse fill="none" stroke="Red" cx="226.349" cy="-115.783" rx="53.8905" ry="18"/>
<text text-anchor="middle" x="226.349" y="-112.083" font-family="Times,serif" font-size="14.00">HistoryNote</text>
</g>
<!-- DescriptorRecord&#45;&gt;HistoryNote -->
<g id="edge42" class="edge"><title>DescriptorRecord&#45;&gt;HistoryNote</title>
<path fill="none" stroke="Blue" d="M151.467,-103.16C156.877,-104.072 162.349,-104.995 167.742,-105.904"/>
<polygon fill="Blue" stroke="Blue" points="167.536,-109.418 177.979,-107.629 168.7,-102.516 167.536,-109.418"/>
</g>
<!-- NLMClassificationNumber -->
<g id="node38" class="node"><title>NLMClassificationNumber</title>
<ellipse fill="none" stroke="Red" cx="221.913" cy="-204.644" rx="108.581" ry="18"/>
<text text-anchor="middle" x="221.913" y="-200.944" font-family="Times,serif" font-size="14.00">NLMClassificationNumber</text>
</g>
<!-- DescriptorRecord&#45;&gt;NLMClassificationNumber -->
<g id="edge43" class="edge"><title>DescriptorRecord&#45;&gt;NLMClassificationNumber</title>
<path fill="none" stroke="Blue" d="M111.33,-110.395C133.418,-129.22 168.74,-159.325 193.506,-180.433"/>
<polygon fill="Blue" stroke="Blue" points="191.265,-183.121 201.146,-186.944 195.805,-177.794 191.265,-183.121"/>
</g>
<!-- OnlineNote -->
<g id="node39" class="node"><title>OnlineNote</title>
<ellipse fill="none" stroke="Red" cx="2.90781" cy="-6.88235" rx="51.9908" ry="18"/>
<text text-anchor="middle" x="2.90781" y="-3.18235" font-family="Times,serif" font-size="14.00">OnlineNote</text>
</g>
<!-- DescriptorRecord&#45;&gt;OnlineNote -->
<g id="edge44" class="edge"><title>DescriptorRecord&#45;&gt;OnlineNote</title>
<path fill="none" stroke="Blue" d="M72.63,-75.1104C59.7251,-62.4821 42.2516,-45.383 28.0259,-31.4621"/>
<polygon fill="Blue" stroke="Blue" points="30.1017,-28.5964 20.5065,-24.1039 25.2058,-33.5995 30.1017,-28.5964"/>
</g>
<!-- PharmacologicalActionList -->
<g id="node40" class="node"><title>PharmacologicalActionList</title>
<ellipse fill="none" stroke="Red" cx="-216.4" cy="-175.986" rx="107.781" ry="18"/>
<text text-anchor="middle" x="-216.4" y="-172.286" font-family="Times,serif" font-size="14.00">PharmacologicalActionList</text>
</g>
<!-- DescriptorRecord&#45;&gt;PharmacologicalActionList -->
<g id="edge45" class="edge"><title>DescriptorRecord&#45;&gt;PharmacologicalActionList</title>
<path fill="none" stroke="Blue" d="M19.731,-97.54C-14.9675,-101.063 -57.0053,-107.25 -93.5641,-118.08 -122.7,-126.711 -153.635,-141.33 -177.172,-153.719"/>
<polygon fill="Blue" stroke="Blue" points="-178.968,-150.71 -186.132,-158.515 -175.664,-156.882 -178.968,-150.71"/>
</g>
<!-- PreviousIndexingList -->
<g id="node44" class="node"><title>PreviousIndexingList</title>
<ellipse fill="none" stroke="Red" cx="-230.702" cy="-65.6698" rx="86.3847" ry="18"/>
<text text-anchor="middle" x="-230.702" y="-61.9698" font-family="Times,serif" font-size="14.00">PreviousIndexingList</text>
</g>
<!-- DescriptorRecord&#45;&gt;PreviousIndexingList -->
<g id="edge50" class="edge"><title>DescriptorRecord&#45;&gt;PreviousIndexingList</title>
<path fill="none" stroke="Blue" d="M21.0797,-87.0243C-26.2812,-83.0075 -89.3513,-77.6583 -140.519,-73.3186"/>
<polygon fill="Blue" stroke="Blue" points="-140.325,-69.8225 -150.585,-72.4648 -140.917,-76.7975 -140.325,-69.8225"/>
</g>
<!-- PublicMeSHNote -->
<g id="node46" class="node"><title>PublicMeSHNote</title>
<ellipse fill="none" stroke="Red" cx="-38.6191" cy="-219.997" rx="73.387" ry="18"/>
<text text-anchor="middle" x="-38.6191" y="-216.297" font-family="Times,serif" font-size="14.00">PublicMeSHNote</text>
</g>
<!-- DescriptorRecord&#45;&gt;PublicMeSHNote -->
<g id="edge52" class="edge"><title>DescriptorRecord&#45;&gt;PublicMeSHNote</title>
<path fill="none" stroke="Blue" d="M72.8497,-110.608C50.4328,-132.607 12.0071,-170.315 -13.3514,-195.201"/>
<polygon fill="Blue" stroke="Blue" points="-16.0837,-192.978 -20.7696,-202.48 -11.1807,-197.974 -16.0837,-192.978"/>
</g>
<!-- SeeRelatedList -->
<g id="node47" class="node"><title>SeeRelatedList</title>
<ellipse fill="none" stroke="Red" cx="-46.291" cy="-276.364" rx="63.8893" ry="18"/>
<text text-anchor="middle" x="-46.291" y="-272.664" font-family="Times,serif" font-size="14.00">SeeRelatedList</text>
</g>
<!-- DescriptorRecord&#45;&gt;SeeRelatedList -->
<g id="edge53" class="edge"><title>DescriptorRecord&#45;&gt;SeeRelatedList</title>
<path fill="none" stroke="Blue" d="M86.5698,-111.075C79.6368,-137.395 63.884,-186.675 36.4243,-220.03 24.793,-234.158 8.73066,-246.197 -6.14753,-255.474"/>
<polygon fill="Blue" stroke="Blue" points="-7.94678,-252.472 -14.7283,-260.612 -4.35069,-258.478 -7.94678,-252.472"/>
</g>
<!-- TreeNumberList -->
<g id="node49" class="node"><title>TreeNumberList</title>
<ellipse fill="none" stroke="Red" cx="319.377" cy="-71.4557" rx="69.5877" ry="18"/>
<text text-anchor="middle" x="319.377" y="-67.7557" font-family="Times,serif" font-size="14.00">TreeNumberList</text>
</g>
<!-- DescriptorRecord&#45;&gt;TreeNumberList -->
<g id="edge56" class="edge"><title>DescriptorRecord&#45;&gt;TreeNumberList</title>
<path fill="none" stroke="Blue" d="M159.727,-86.4663C186.18,-83.9791 216.509,-81.1275 243.577,-78.5825"/>
<polygon fill="Blue" stroke="Blue" points="244.148,-82.0443 253.777,-77.6235 243.493,-75.0751 244.148,-82.0443"/>
</g>
<!-- AllowableQualifier -->
<g id="node3" class="node"><title>AllowableQualifier</title>
<ellipse fill="none" stroke="Red" cx="263.193" cy="-353.967" rx="79.0865" ry="18"/>
<text text-anchor="middle" x="263.193" y="-350.267" font-family="Times,serif" font-size="14.00">AllowableQualifier</text>
</g>
<!-- AllowableQualifiersList&#45;&gt;AllowableQualifier -->
<g id="edge2" class="edge"><title>AllowableQualifiersList&#45;&gt;AllowableQualifier</title>
<path fill="none" stroke="Blue" d="M162.404,-275.279C175.727,-285.369 192.729,-298.321 207.743,-309.99 216.11,-316.494 225.134,-323.607 233.421,-330.18"/>
<polygon fill="Blue" stroke="Blue" points="231.406,-333.05 241.412,-336.532 235.761,-327.57 231.406,-333.05"/>
</g>
<!-- Abbreviation -->
<g id="node4" class="node"><title>Abbreviation</title>
<ellipse fill="none" stroke="Red" cx="404.046" cy="-135.548" rx="57.3905" ry="18"/>
<text text-anchor="middle" x="404.046" y="-131.848" font-family="Times,serif" font-size="14.00">Abbreviation</text>
</g>
<!-- AllowableQualifier&#45;&gt;Abbreviation -->
<g id="edge3" class="edge"><title>AllowableQualifier&#45;&gt;Abbreviation</title>
<path fill="none" stroke="Blue" d="M274.72,-336.093C299.491,-297.68 357.908,-207.094 386.986,-162.002"/>
<polygon fill="Blue" stroke="Blue" points="390.08,-163.663 392.558,-153.362 384.197,-159.87 390.08,-163.663"/>
</g>
<!-- QualifierReferredTo -->
<g id="node5" class="node"><title>QualifierReferredTo</title>
<ellipse fill="none" stroke="Red" cx="63.4916" cy="-447.406" rx="83.3857" ry="18"/>
<text text-anchor="middle" x="63.4916" y="-443.706" font-family="Times,serif" font-size="14.00">QualifierReferredTo</text>
</g>
<!-- AllowableQualifier&#45;&gt;QualifierReferredTo -->
<g id="edge4" class="edge"><title>AllowableQualifier&#45;&gt;QualifierReferredTo</title>
<path fill="none" stroke="Blue" d="M228.408,-370.243C194.966,-385.89 144.277,-409.607 107.927,-426.615"/>
<polygon fill="Blue" stroke="Blue" points="106.123,-423.595 98.5484,-431.003 109.089,-429.936 106.123,-423.595"/>
</g>
<!-- Concept -->
<g id="node8" class="node"><title>Concept</title>
<ellipse fill="none" stroke="Red" cx="42.546" cy="300.469" rx="40.0939" ry="18"/>
<text text-anchor="middle" x="42.546" y="304.169" font-family="Times,serif" font-size="14.00">Concept</text>
</g>
<!-- ConceptList&#45;&gt;Concept -->
<g id="edge7" class="edge"><title>ConceptList&#45;&gt;Concept</title>
<path fill="none" stroke="Blue" d="M-35.9714,137.076C-20.589,169.087 11.5295,235.924 29.5569,273.439"/>
<polygon fill="Blue" stroke="Blue" points="32.8535,272.218 34.0301,282.748 26.5441,275.25 32.8535,272.218"/>
</g>
<!-- CASN1Name -->
<g id="node9" class="node"><title>CASN1Name</title>
<ellipse fill="none" stroke="Red" cx="-54.95" cy="408.644" rx="59.5901" ry="18"/>
<text text-anchor="middle" x="-54.95" y="412.344" font-family="Times,serif" font-size="14.00">CASN1Name</text>
</g>
<!-- Concept&#45;&gt;CASN1Name -->
<g id="edge8" class="edge"><title>Concept&#45;&gt;CASN1Name</title>
<path fill="none" stroke="Blue" d="M27.3122,317.371C11.3316,335.102 -13.9625,363.167 -32.2866,383.498"/>
<polygon fill="Blue" stroke="Blue" points="-29.8825,386.059 -39.1773,391.144 -35.0822,381.372 -29.8825,386.059"/>
</g>
<!-- ConceptName -->
<g id="node10" class="node"><title>ConceptName</title>
<ellipse fill="none" stroke="Red" cx="234.478" cy="354.916" rx="61.99" ry="18"/>
<text text-anchor="middle" x="234.478" y="358.616" font-family="Times,serif" font-size="14.00">ConceptName</text>
</g>
<!-- Concept&#45;&gt;ConceptName -->
<g id="edge9" class="edge"><title>Concept&#45;&gt;ConceptName</title>
<path fill="none" stroke="Blue" d="M76.8596,310.203C105.491,318.325 146.818,330.048 179.972,339.454"/>
<polygon fill="Blue" stroke="Blue" points="181.311,336.195 189.976,342.291 179.4,342.929 181.311,336.195"/>
</g>
<!-- ConceptRelationList -->
<g id="node12" class="node"><title>ConceptRelationList</title>
<ellipse fill="none" stroke="Red" cx="145.148" cy="496.839" rx="83.3857" ry="18"/>
<text text-anchor="middle" x="145.148" y="500.539" font-family="Times,serif" font-size="14.00">ConceptRelationList</text>
</g>
<!-- Concept&#45;&gt;ConceptRelationList -->
<g id="edge11" class="edge"><title>Concept&#45;&gt;ConceptRelationList</title>
<path fill="none" stroke="Blue" d="M45.994,318.54C50.7002,340.742 60.3869,379.132 76.0462,408.994 88.0498,431.884 106.27,454.737 120.989,471.393"/>
<polygon fill="Blue" stroke="Blue" points="123.792,469.276 127.89,479.046 118.593,473.964 123.792,469.276"/>
</g>
<!-- ConceptUI -->
<g id="node16" class="node"><title>ConceptUI</title>
<ellipse fill="none" stroke="Red" cx="26.3645" cy="452.809" rx="49.2915" ry="18"/>
<text text-anchor="middle" x="26.3645" y="456.509" font-family="Times,serif" font-size="14.00">ConceptUI</text>
</g>
<!-- Concept&#45;&gt;ConceptUI -->
<g id="edge15" class="edge"><title>Concept&#45;&gt;ConceptUI</title>
<path fill="none" stroke="Blue" d="M40.6262,318.542C37.8404,344.769 32.6515,393.62 29.3599,424.609"/>
<polygon fill="Blue" stroke="Blue" points="32.8186,425.184 28.2818,434.759 25.8577,424.445 32.8186,425.184"/>
</g>
<!-- RegistryNumber -->
<g id="node17" class="node"><title>RegistryNumber</title>
<ellipse fill="none" stroke="Red" cx="147.187" cy="408.802" rx="69.5877" ry="18"/>
<text text-anchor="middle" x="147.187" y="412.502" font-family="Times,serif" font-size="14.00">RegistryNumber</text>
</g>
<!-- Concept&#45;&gt;RegistryNumber -->
<g id="edge16" class="edge"><title>Concept&#45;&gt;RegistryNumber</title>
<path fill="none" stroke="Blue" d="M58.8961,317.396C76.1237,335.231 103.436,363.507 123.123,383.889"/>
<polygon fill="Blue" stroke="Blue" points="125.828,381.651 130.258,391.276 120.793,386.515 125.828,381.651"/>
</g>
<!-- RelatedRegistryNumberList -->
<g id="node18" class="node"><title>RelatedRegistryNumberList</title>
<ellipse fill="none" stroke="Red" cx="-179.649" cy="452.674" rx="110.48" ry="18"/>
<text text-anchor="middle" x="-179.649" y="456.374" font-family="Times,serif" font-size="14.00">RelatedRegistryNumberList</text>
</g>
<!-- Concept&#45;&gt;RelatedRegistryNumberList -->
<g id="edge17" class="edge"><title>Concept&#45;&gt;RelatedRegistryNumberList</title>
<path fill="none" stroke="Blue" d="M19.3926,315.628C-8.71718,334.106 -57.4867,366.397 -98.7543,394.911 -114.776,405.982 -132.393,418.517 -147.084,429.074"/>
<polygon fill="Blue" stroke="Blue" points="-145.202,432.032 -155.362,435.036 -149.293,426.352 -145.202,432.032"/>
</g>
<!-- ScopeNote -->
<g id="node20" class="node"><title>ScopeNote</title>
<ellipse fill="none" stroke="Red" cx="-152.094" cy="364.614" rx="49.2915" ry="18"/>
<text text-anchor="middle" x="-152.094" y="368.314" font-family="Times,serif" font-size="14.00">ScopeNote</text>
</g>
<!-- Concept&#45;&gt;ScopeNote -->
<g id="edge19" class="edge"><title>Concept&#45;&gt;ScopeNote</title>
<path fill="none" stroke="Blue" d="M9.96766,311.205C-21.687,321.637 -70.0659,337.581 -105.729,349.334"/>
<polygon fill="Blue" stroke="Blue" points="-104.833,352.724 -115.426,352.53 -107.024,346.076 -104.833,352.724"/>
</g>
<!-- TermList -->
<g id="node21" class="node"><title>TermList</title>
<ellipse fill="none" stroke="Red" cx="230.689" cy="253.703" rx="44.393" ry="18"/>
<text text-anchor="middle" x="230.689" y="257.403" font-family="Times,serif" font-size="14.00">TermList</text>
</g>
<!-- Concept&#45;&gt;TermList -->
<g id="edge20" class="edge"><title>Concept&#45;&gt;TermList</title>
<path fill="none" stroke="Blue" d="M77.9342,291.673C107.646,284.287 150.362,273.67 183.072,265.539"/>
<polygon fill="Blue" stroke="Blue" points="182.328,262.117 192.877,263.102 184.017,268.911 182.328,262.117"/>
</g>
<!-- String -->
<g id="node11" class="node"><title>String</title>
<ellipse fill="none" stroke="Red" cx="354.465" cy="248.879" rx="32.4942" ry="18"/>
<text text-anchor="middle" x="354.465" y="252.579" font-family="Times,serif" font-size="14.00">String</text>
</g>
<!-- ConceptName&#45;&gt;String -->
<g id="edge10" class="edge"><title>ConceptName&#45;&gt;String</title>
<path fill="none" stroke="Blue" d="M254.023,337.643C274.487,319.559 306.702,291.089 329.111,271.286"/>
<polygon fill="Blue" stroke="Blue" points="327.072,268.417 336.883,264.417 331.707,273.662 327.072,268.417"/>
</g>
<!-- ConceptRelation -->
<g id="node13" class="node"><title>ConceptRelation</title>
<ellipse fill="none" stroke="Red" cx="185.506" cy="662.257" rx="69.5877" ry="18"/>
<text text-anchor="middle" x="185.506" y="665.957" font-family="Times,serif" font-size="14.00">ConceptRelation</text>
</g>
<!-- ConceptRelationList&#45;&gt;ConceptRelation -->
<g id="edge12" class="edge"><title>ConceptRelationList&#45;&gt;ConceptRelation</title>
<path fill="none" stroke="Blue" d="M149.544,514.856C156.58,543.693 170.42,600.422 178.729,634.477"/>
<polygon fill="Blue" stroke="Blue" points="182.146,633.717 181.116,644.261 175.345,635.376 182.146,633.717"/>
</g>
<!-- Concept1UI -->
<g id="node14" class="node"><title>Concept1UI</title>
<ellipse fill="none" stroke="Red" cx="107.505" cy="821.883" rx="53.8905" ry="18"/>
<text text-anchor="middle" x="107.505" y="825.583" font-family="Times,serif" font-size="14.00">Concept1UI</text>
</g>
<!-- ConceptRelation&#45;&gt;Concept1UI -->
<g id="edge13" class="edge"><title>ConceptRelation&#45;&gt;Concept1UI</title>
<path fill="none" stroke="Blue" d="M176.71,680.258C163.075,708.161 136.75,762.034 120.79,794.696"/>
<polygon fill="Blue" stroke="Blue" points="123.924,796.255 116.389,803.703 117.635,793.181 123.924,796.255"/>
</g>
<!-- Concept2UI -->
<g id="node15" class="node"><title>Concept2UI</title>
<ellipse fill="none" stroke="Red" cx="320.496" cy="765.1" rx="53.8905" ry="18"/>
<text text-anchor="middle" x="320.496" y="768.8" font-family="Times,serif" font-size="14.00">Concept2UI</text>
</g>
<!-- ConceptRelation&#45;&gt;Concept2UI -->
<g id="edge14" class="edge"><title>ConceptRelation&#45;&gt;Concept2UI</title>
<path fill="none" stroke="Blue" d="M208.101,679.47C230.758,696.732 265.769,723.406 290.691,742.393"/>
<polygon fill="Blue" stroke="Blue" points="292.89,739.668 298.723,748.512 288.648,745.236 292.89,739.668"/>
</g>
<!-- RelatedRegistryNumber -->
<g id="node19" class="node"><title>RelatedRegistryNumber</title>
<ellipse fill="none" stroke="Red" cx="-256.998" cy="590.607" rx="96.6831" ry="18"/>
<text text-anchor="middle" x="-256.998" y="594.307" font-family="Times,serif" font-size="14.00">RelatedRegistryNumber</text>
</g>
<!-- RelatedRegistryNumberList&#45;&gt;RelatedRegistryNumber -->
<g id="edge18" class="edge"><title>RelatedRegistryNumberList&#45;&gt;RelatedRegistryNumber</title>
<path fill="none" stroke="Blue" d="M-189.761,470.707C-203.022,494.353 -226.404,536.05 -241.8,563.506"/>
<polygon fill="Blue" stroke="Blue" points="-238.94,565.56 -246.884,572.57 -245.045,562.136 -238.94,565.56"/>
</g>
<!-- Term -->
<g id="node22" class="node"><title>Term</title>
<ellipse fill="none" stroke="Red" cx="327.937" cy="84.8797" rx="30.5947" ry="18"/>
<text text-anchor="middle" x="327.937" y="88.5797" font-family="Times,serif" font-size="14.00">Term</text>
</g>
<!-- TermList&#45;&gt;Term -->
<g id="edge21" class="edge"><title>TermList&#45;&gt;Term</title>
<path fill="none" stroke="Blue" d="M240.912,235.955C258.029,206.24 292.576,146.266 312.611,111.485"/>
<polygon fill="Blue" stroke="Blue" points="309.826,109.308 317.85,102.39 315.891,112.802 309.826,109.308"/>
</g>
<!-- Term&#45;&gt;Abbreviation -->
<g id="edge22" class="edge"><title>Term&#45;&gt;Abbreviation</title>
<path fill="none" stroke="Blue" d="M336.084,67.4033C349.125,38.8592 374.813,-19.7826 390.52,-71.5746 394.015,-83.1 396.936,-96.06 399.159,-107.286"/>
<polygon fill="Blue" stroke="Blue" points="395.777,-108.238 401.072,-117.414 402.655,-106.938 395.777,-108.238"/>
</g>
<!-- Term&#45;&gt;String -->
<g id="edge26" class="edge"><title>Term&#45;&gt;String</title>
<path fill="none" stroke="Blue" d="M330.877,103.057C335.478,131.503 344.418,186.764 349.873,220.489"/>
<polygon fill="Blue" stroke="Blue" points="353.37,220.19 351.512,230.62 346.46,221.307 353.37,220.19"/>
</g>
<!-- Term&#45;&gt;DateCreated -->
<g id="edge23" class="edge"><title>Term&#45;&gt;DateCreated</title>
<path fill="none" stroke="Blue" d="M299.042,78.7355C263.879,71.2584 203.717,58.4656 159.369,49.0353"/>
<polygon fill="Blue" stroke="Blue" points="158.366,52.4004 149.312,46.897 159.822,45.5535 158.366,52.4004"/>
</g>
<!-- EntryVersion -->
<g id="node24" class="node"><title>EntryVersion</title>
<ellipse fill="none" stroke="Red" cx="467.341" cy="119.866" rx="57.6901" ry="18"/>
<text text-anchor="middle" x="467.341" y="123.566" font-family="Times,serif" font-size="14.00">EntryVersion</text>
</g>
<!-- Term&#45;&gt;EntryVersion -->
<g id="edge24" class="edge"><title>Term&#45;&gt;EntryVersion</title>
<path fill="none" stroke="Blue" d="M356.147,91.9597C372.272,96.0065 393.054,101.222 412.28,106.047"/>
<polygon fill="Blue" stroke="Blue" points="413.312,102.698 422.159,108.527 411.608,109.487 413.312,102.698"/>
</g>
<!-- SortVersion -->
<g id="node25" class="node"><title>SortVersion</title>
<ellipse fill="none" stroke="Red" cx="470.262" cy="-8.81409" rx="53.0913" ry="18"/>
<text text-anchor="middle" x="470.262" y="-5.11409" font-family="Times,serif" font-size="14.00">SortVersion</text>
</g>
<!-- Term&#45;&gt;SortVersion -->
<g id="edge25" class="edge"><title>Term&#45;&gt;SortVersion</title>
<path fill="none" stroke="Blue" d="M348.328,71.4557C371.494,56.2057 409.637,31.0961 437.098,13.0184"/>
<polygon fill="Blue" stroke="Blue" points="435.328,9.99271 445.606,7.41753 439.177,15.8395 435.328,9.99271"/>
</g>
<!-- TermUI -->
<g id="node26" class="node"><title>TermUI</title>
<ellipse fill="none" stroke="Red" cx="456.718" cy="191.23" rx="39.7935" ry="18"/>
<text text-anchor="middle" x="456.718" y="194.93" font-family="Times,serif" font-size="14.00">TermUI</text>
</g>
<!-- Term&#45;&gt;TermUI -->
<g id="edge27" class="edge"><title>Term&#45;&gt;TermUI</title>
<path fill="none" stroke="Blue" d="M345.843,99.6672C367.545,117.59 404.333,147.969 429.538,168.785"/>
<polygon fill="Blue" stroke="Blue" points="431.799,166.112 437.281,175.179 427.342,171.51 431.799,166.112"/>
</g>
<!-- ThesaurusIDlist -->
<g id="node27" class="node"><title>ThesaurusIDlist</title>
<ellipse fill="none" stroke="Red" cx="514.131" cy="52.4165" rx="66.8882" ry="18"/>
<text text-anchor="middle" x="514.131" y="56.1165" font-family="Times,serif" font-size="14.00">ThesaurusIDlist</text>
</g>
<!-- Term&#45;&gt;ThesaurusIDlist -->
<g id="edge28" class="edge"><title>Term&#45;&gt;ThesaurusIDlist</title>
<path fill="none" stroke="Blue" d="M357.44,79.7358C381.682,75.5091 416.945,69.361 447.882,63.9671"/>
<polygon fill="Blue" stroke="Blue" points="447.303,60.5154 457.755,62.2457 448.505,67.4114 447.303,60.5154"/>
</g>
<!-- ThesaurusID -->
<g id="node28" class="node"><title>ThesaurusID</title>
<ellipse fill="none" stroke="Red" cx="689.553" cy="42.6456" rx="55.7903" ry="18"/>
<text text-anchor="middle" x="689.553" y="46.3456" font-family="Times,serif" font-size="14.00">ThesaurusID</text>
</g>
<!-- ThesaurusIDlist&#45;&gt;ThesaurusID -->
<g id="edge29" class="edge"><title>ThesaurusIDlist&#45;&gt;ThesaurusID</title>
<path fill="none" stroke="Blue" d="M579.951,48.7504C594.345,47.9486 609.58,47.1001 623.966,46.2988"/>
<polygon fill="Blue" stroke="Blue" points="624.088,42.7867 634.267,45.7251 624.477,49.7759 624.088,42.7867"/>
</g>
<!-- EntryCombination -->
<g id="node33" class="node"><title>EntryCombination</title>
<ellipse fill="none" stroke="Red" cx="162.349" cy="-500.473" rx="76.8869" ry="18"/>
<text text-anchor="middle" x="162.349" y="-496.773" font-family="Times,serif" font-size="14.00">EntryCombination</text>
</g>
<!-- EntryCombinationList&#45;&gt;EntryCombination -->
<g id="edge35" class="edge"><title>EntryCombinationList&#45;&gt;EntryCombination</title>
<path fill="none" stroke="Blue" d="M120.265,-328.202C128.432,-361.635 145.83,-432.854 155.503,-472.45"/>
<polygon fill="Blue" stroke="Blue" points="152.126,-473.375 157.9,-482.259 158.926,-471.714 152.126,-473.375"/>
</g>
<!-- ECIN -->
<g id="node34" class="node"><title>ECIN</title>
<ellipse fill="none" stroke="Red" cx="30.2985" cy="-587.544" rx="31.3957" ry="18"/>
<text text-anchor="middle" x="30.2985" y="-583.844" font-family="Times,serif" font-size="14.00">ECIN</text>
</g>
<!-- EntryCombination&#45;&gt;ECIN -->
<g id="edge36" class="edge"><title>EntryCombination&#45;&gt;ECIN</title>
<path fill="none" stroke="Blue" d="M136.575,-517.468C114.479,-532.038 82.6571,-553.02 59.5988,-568.224"/>
<polygon fill="Blue" stroke="Blue" points="57.6509,-565.316 51.2291,-573.743 61.5043,-571.16 57.6509,-565.316"/>
</g>
<!-- ECOUT -->
<g id="node36" class="node"><title>ECOUT</title>
<ellipse fill="none" stroke="Red" cx="-59.9216" cy="-583.821" rx="40.0939" ry="18"/>
<text text-anchor="middle" x="-59.9216" y="-580.121" font-family="Times,serif" font-size="14.00">ECOUT</text>
</g>
<!-- EntryCombination&#45;&gt;ECOUT -->
<g id="edge39" class="edge"><title>EntryCombination&#45;&gt;ECOUT</title>
<path fill="none" stroke="Blue" d="M121.581,-515.76C81.521,-530.782 20.7383,-553.575 -19.2788,-568.58"/>
<polygon fill="Blue" stroke="Blue" points="-20.596,-565.336 -28.7305,-572.125 -18.1382,-571.891 -20.596,-565.336"/>
</g>
<!-- ECIN&#45;&gt;QualifierReferredTo -->
<g id="edge38" class="edge"><title>ECIN&#45;&gt;QualifierReferredTo</title>
<path fill="none" stroke="Blue" d="M34.5699,-569.51C40.1904,-545.782 50.1312,-503.813 56.766,-475.801"/>
<polygon fill="Blue" stroke="Blue" points="60.2319,-476.353 59.1311,-465.816 53.4204,-474.74 60.2319,-476.353"/>
</g>
<!-- DescriptorReferredTo -->
<g id="node35" class="node"><title>DescriptorReferredTo</title>
<ellipse fill="none" stroke="Red" cx="-230.704" cy="-510.356" rx="88.2844" ry="18"/>
<text text-anchor="middle" x="-230.704" y="-506.656" font-family="Times,serif" font-size="14.00">DescriptorReferredTo</text>
</g>
<!-- ECIN&#45;&gt;DescriptorReferredTo -->
<g id="edge37" class="edge"><title>ECIN&#45;&gt;DescriptorReferredTo</title>
<path fill="none" stroke="Blue" d="M2.36659,-579.284C-38.6117,-567.165 -116.04,-544.267 -170.373,-528.198"/>
<polygon fill="Blue" stroke="Blue" points="-169.653,-524.761 -180.235,-525.282 -171.638,-531.474 -169.653,-524.761"/>
</g>
<!-- ECOUT&#45;&gt;QualifierReferredTo -->
<g id="edge41" class="edge"><title>ECOUT&#45;&gt;QualifierReferredTo</title>
<path fill="none" stroke="Blue" d="M-44.7887,-567.094C-23.4648,-543.523 15.5993,-500.344 40.5174,-472.801"/>
<polygon fill="Blue" stroke="Blue" points="43.3389,-474.899 47.4524,-465.135 38.148,-470.203 43.3389,-474.899"/>
</g>
<!-- ECOUT&#45;&gt;DescriptorReferredTo -->
<g id="edge40" class="edge"><title>ECOUT&#45;&gt;DescriptorReferredTo</title>
<path fill="none" stroke="Blue" d="M-89.2802,-571.192C-115.097,-560.086 -153.148,-543.718 -183.28,-530.757"/>
<polygon fill="Blue" stroke="Blue" points="-182.19,-527.415 -192.759,-526.679 -184.956,-533.846 -182.19,-527.415"/>
</g>
<!-- PharmacologicalAction -->
<g id="node41" class="node"><title>PharmacologicalAction</title>
<ellipse fill="none" stroke="Red" cx="-415.32" cy="-304.384" rx="94.4839" ry="18"/>
<text text-anchor="middle" x="-415.32" y="-300.684" font-family="Times,serif" font-size="14.00">PharmacologicalAction</text>
</g>
<!-- PharmacologicalActionList&#45;&gt;PharmacologicalAction -->
<g id="edge46" class="edge"><title>PharmacologicalActionList&#45;&gt;PharmacologicalAction</title>
<path fill="none" stroke="Blue" d="M-243.642,-193.57C-279.056,-216.429 -340.974,-256.396 -379.974,-281.569"/>
<polygon fill="Blue" stroke="Blue" points="-381.904,-278.649 -388.407,-287.013 -378.107,-284.53 -381.904,-278.649"/>
</g>
<!-- PharmacologicalAction&#45;&gt;DescriptorReferredTo -->
<g id="edge47" class="edge"><title>PharmacologicalAction&#45;&gt;DescriptorReferredTo</title>
<path fill="none" stroke="Blue" d="M-402.991,-322.301C-397.207,-330.425 -390.085,-340.048 -383.201,-348.336 -341.109,-399.014 -287.419,-454.077 -256.265,-485.19"/>
<polygon fill="Blue" stroke="Blue" points="-258.409,-487.995 -248.851,-492.567 -253.472,-483.033 -258.409,-487.995"/>
</g>
<!-- PharmacologicalActionSubstanceList -->
<g id="node42" class="node"><title>PharmacologicalActionSubstanceList</title>
<ellipse fill="none" stroke="Red" cx="-546.817" cy="-390.78" rx="143.775" ry="18"/>
<text text-anchor="middle" x="-546.817" y="-387.08" font-family="Times,serif" font-size="14.00">PharmacologicalActionSubstanceList</text>
</g>
<!-- PharmacologicalAction&#45;&gt;PharmacologicalActionSubstanceList -->
<g id="edge48" class="edge"><title>PharmacologicalAction&#45;&gt;PharmacologicalActionSubstanceList</title>
<path fill="none" stroke="Blue" d="M-441.931,-321.868C-461.939,-335.013 -489.549,-353.154 -511.42,-367.524"/>
<polygon fill="Blue" stroke="Blue" points="-513.359,-364.61 -519.795,-373.026 -509.515,-370.46 -513.359,-364.61"/>
</g>
<!-- Substance -->
<g id="node43" class="node"><title>Substance</title>
<ellipse fill="none" stroke="Red" cx="-679.286" cy="-471.075" rx="46.2923" ry="18"/>
<text text-anchor="middle" x="-679.286" y="-467.375" font-family="Times,serif" font-size="14.00">Substance</text>
</g>
<!-- PharmacologicalActionSubstanceList&#45;&gt;Substance -->
<g id="edge49" class="edge"><title>PharmacologicalActionSubstanceList&#45;&gt;Substance</title>
<path fill="none" stroke="Blue" d="M-576.216,-408.6C-596.625,-420.971 -623.875,-437.489 -645.23,-450.433"/>
<polygon fill="Blue" stroke="Blue" points="-647.247,-447.562 -653.984,-455.739 -643.618,-453.549 -647.247,-447.562"/>
</g>
<!-- PreviousIndexing -->
<g id="node45" class="node"><title>PreviousIndexing</title>
<ellipse fill="none" stroke="Red" cx="-520.851" cy="-75.5731" rx="72.5877" ry="18"/>
<text text-anchor="middle" x="-520.851" y="-71.8731" font-family="Times,serif" font-size="14.00">PreviousIndexing</text>
</g>
<!-- PreviousIndexingList&#45;&gt;PreviousIndexing -->
<g id="edge51" class="edge"><title>PreviousIndexingList&#45;&gt;PreviousIndexing</title>
<path fill="none" stroke="Blue" d="M-316.187,-68.5876C-354.856,-69.9074 -400.362,-71.4606 -438.633,-72.7669"/>
<polygon fill="Blue" stroke="Blue" points="-438.835,-69.2716 -448.709,-73.1108 -438.596,-76.2675 -438.835,-69.2716"/>
</g>
<!-- SeeRelatedDescriptor -->
<g id="node48" class="node"><title>SeeRelatedDescriptor</title>
<ellipse fill="none" stroke="Red" cx="-114.953" cy="-454.571" rx="87.1846" ry="18"/>
<text text-anchor="middle" x="-114.953" y="-450.871" font-family="Times,serif" font-size="14.00">SeeRelatedDescriptor</text>
</g>
<!-- SeeRelatedList&#45;&gt;SeeRelatedDescriptor -->
<g id="edge54" class="edge"><title>SeeRelatedList&#45;&gt;SeeRelatedDescriptor</title>
<path fill="none" stroke="Blue" d="M-42.2832,-294.617C-38.0044,-318.327 -33.612,-360.471 -47.8909,-392.53 -54.6667,-407.743 -67.1659,-420.914 -79.5537,-431.158"/>
<polygon fill="Blue" stroke="Blue" points="-81.8928,-428.544 -87.6168,-437.46 -77.5824,-434.06 -81.8928,-428.544"/>
</g>
<!-- SeeRelatedDescriptor&#45;&gt;DescriptorReferredTo -->
<g id="edge55" class="edge"><title>SeeRelatedDescriptor&#45;&gt;DescriptorReferredTo</title>
<path fill="none" stroke="Blue" d="M-149.368,-471.158C-161.158,-476.839 -174.51,-483.274 -186.939,-489.264"/>
<polygon fill="Blue" stroke="Blue" points="-188.732,-486.243 -196.221,-493.738 -185.693,-492.549 -188.732,-486.243"/>
</g>
<!-- SupplementalRecord -->
<g id="node50" class="node"><title>SupplementalRecord</title>
<ellipse fill="none" stroke="Red" cx="-272.15" cy="44.774" rx="85.2851" ry="18"/>
<text text-anchor="middle" x="-272.15" y="48.474" font-family="Times,serif" font-size="14.00">SupplementalRecord</text>
</g>
<!-- SupplementalRecord&#45;&gt;ConceptList -->
<g id="edge57" class="edge"><title>SupplementalRecord&#45;&gt;ConceptList</title>
<path fill="none" stroke="Blue" d="M-225.838,59.8871C-187.153,72.5112 -132.182,90.4501 -92.9522,103.252"/>
<polygon fill="Blue" stroke="Blue" points="-91.7579,99.9601 -83.3372,106.39 -93.9296,106.615 -91.7579,99.9601"/>
</g>
<!-- SupplementalRecord&#45;&gt;DateCreated -->
<g id="edge58" class="edge"><title>SupplementalRecord&#45;&gt;DateCreated</title>
<path fill="none" stroke="Blue" d="M-186.932,43.0404C-118.462,41.6475 -23.7488,39.7208 38.6285,38.4518"/>
<polygon fill="Blue" stroke="Blue" points="38.6662,34.9504 48.7353,38.2462 38.8086,41.949 38.6662,34.9504"/>
</g>
<!-- SupplementalRecord&#45;&gt;DateRevised -->
<g id="edge59" class="edge"><title>SupplementalRecord&#45;&gt;DateRevised</title>
<path fill="none" stroke="Blue" d="M-218.857,30.7104C-201.994,26.2603 -183.364,21.344 -166.515,16.8977"/>
<polygon fill="Blue" stroke="Blue" points="-167.39,13.5087 -156.827,14.3412 -165.603,20.277 -167.39,13.5087"/>
</g>
<!-- SupplementalRecord&#45;&gt;PharmacologicalActionList -->
<g id="edge70" class="edge"><title>SupplementalRecord&#45;&gt;PharmacologicalActionList</title>
<path fill="none" stroke="Blue" d="M-287.023,26.8244C-302.831,5.6175 -324.784,-31.1416 -318.742,-65.5429 -312.193,-102.831 -280.3,-133.276 -253.834,-152.687"/>
<polygon fill="Blue" stroke="Blue" points="-255.657,-155.684 -245.471,-158.596 -251.618,-149.967 -255.657,-155.684"/>
</g>
<!-- SupplementalRecord&#45;&gt;PreviousIndexingList -->
<g id="edge71" class="edge"><title>SupplementalRecord&#45;&gt;PreviousIndexingList</title>
<path fill="none" stroke="Blue" d="M-265.306,26.5365C-258.736,9.03061 -248.722,-17.6525 -241.154,-37.818"/>
<polygon fill="Blue" stroke="Blue" points="-244.347,-39.2725 -237.556,-47.4052 -237.793,-36.813 -244.347,-39.2725"/>
</g>
<!-- Frequency -->
<g id="node51" class="node"><title>Frequency</title>
<ellipse fill="none" stroke="Red" cx="-419.269" cy="77.7516" rx="48.1917" ry="18"/>
<text text-anchor="middle" x="-419.269" y="81.4516" font-family="Times,serif" font-size="14.00">Frequency</text>
</g>
<!-- SupplementalRecord&#45;&gt;Frequency -->
<g id="edge60" class="edge"><title>SupplementalRecord&#45;&gt;Frequency</title>
<path fill="none" stroke="Blue" d="M-330.718,57.9024C-342.988,60.6528 -355.839,63.5334 -367.826,66.2204"/>
<polygon fill="Blue" stroke="Blue" points="-367.137,69.6527 -377.661,68.4248 -368.668,62.8222 -367.137,69.6527"/>
</g>
<!-- HeadingMappedToList -->
<g id="node52" class="node"><title>HeadingMappedToList</title>
<ellipse fill="none" stroke="Red" cx="-425.244" cy="-167.135" rx="92.8835" ry="18"/>
<text text-anchor="middle" x="-425.244" y="-163.435" font-family="Times,serif" font-size="14.00">HeadingMappedToList</text>
</g>
<!-- SupplementalRecord&#45;&gt;HeadingMappedToList -->
<g id="edge61" class="edge"><title>SupplementalRecord&#45;&gt;HeadingMappedToList</title>
<path fill="none" stroke="Blue" d="M-283.041,26.8735C-295.107,5.71271 -313.55,-31.0031 -318.742,-65.5429 -322.378,-89.7266 -301.082,-99.0344 -313.183,-120.286 -321.015,-134.04 -333.887,-143.756 -348.171,-150.62"/>
<polygon fill="Blue" stroke="Blue" points="-349.922,-147.563 -357.723,-154.732 -347.154,-153.992 -349.922,-147.563"/>
</g>
<!-- IndexingInformationList -->
<g id="node54" class="node"><title>IndexingInformationList</title>
<ellipse fill="none" stroke="Red" cx="-412.921" cy="-120.129" rx="98.2828" ry="18"/>
<text text-anchor="middle" x="-412.921" y="-116.429" font-family="Times,serif" font-size="14.00">IndexingInformationList</text>
</g>
<!-- SupplementalRecord&#45;&gt;IndexingInformationList -->
<g id="edge65" class="edge"><title>SupplementalRecord&#45;&gt;IndexingInformationList</title>
<path fill="none" stroke="Blue" d="M-287.483,26.8126C-312.446,-2.42969 -361.971,-60.445 -390.762,-94.1707"/>
<polygon fill="Blue" stroke="Blue" points="-393.776,-92.3113 -397.607,-102.189 -388.452,-96.8562 -393.776,-92.3113"/>
</g>
<!-- Note -->
<g id="node56" class="node"><title>Note</title>
<ellipse fill="none" stroke="Red" cx="-312.142" cy="174.336" rx="27.8951" ry="18"/>
<text text-anchor="middle" x="-312.142" y="178.036" font-family="Times,serif" font-size="14.00">Note</text>
</g>
<!-- SupplementalRecord&#45;&gt;Note -->
<g id="edge69" class="edge"><title>SupplementalRecord&#45;&gt;Note</title>
<path fill="none" stroke="Blue" d="M-277.711,62.7891C-284.426,84.5448 -295.793,121.369 -303.617,146.719"/>
<polygon fill="Blue" stroke="Blue" points="-300.335,147.951 -306.629,156.474 -307.023,145.887 -300.335,147.951"/>
</g>
<!-- SourceList -->
<g id="node57" class="node"><title>SourceList</title>
<ellipse fill="none" stroke="Red" cx="-404.813" cy="140.088" rx="48.9926" ry="18"/>
<text text-anchor="middle" x="-404.813" y="143.788" font-family="Times,serif" font-size="14.00">SourceList</text>
</g>
<!-- SupplementalRecord&#45;&gt;SourceList -->
<g id="edge72" class="edge"><title>SupplementalRecord&#45;&gt;SourceList</title>
<path fill="none" stroke="Blue" d="M-296.482,62.2561C-318.334,77.9558 -350.516,101.077 -374.127,118.041"/>
<polygon fill="Blue" stroke="Blue" points="-372.239,120.994 -382.403,123.987 -376.324,115.31 -372.239,120.994"/>
</g>
<!-- HeadingMappedTo -->
<g id="node53" class="node"><title>HeadingMappedTo</title>
<ellipse fill="none" stroke="Red" cx="-128.783" cy="-392.461" rx="79.0865" ry="18"/>
<text text-anchor="middle" x="-128.783" y="-388.761" font-family="Times,serif" font-size="14.00">HeadingMappedTo</text>
</g>
<!-- HeadingMappedToList&#45;&gt;HeadingMappedTo -->
<g id="edge62" class="edge"><title>HeadingMappedToList&#45;&gt;HeadingMappedTo</title>
<path fill="none" stroke="Blue" d="M-401.981,-184.816C-349.03,-225.062 -219.488,-323.521 -159.811,-368.878"/>
<polygon fill="Blue" stroke="Blue" points="-161.61,-371.907 -151.531,-375.172 -157.374,-366.334 -161.61,-371.907"/>
</g>
<!-- HeadingMappedTo&#45;&gt;QualifierReferredTo -->
<g id="edge64" class="edge"><title>HeadingMappedTo&#45;&gt;QualifierReferredTo</title>
<path fill="none" stroke="Blue" d="M-79.2678,-406.611C-54.1084,-413.8 -23.3281,-422.596 3.20142,-430.178"/>
<polygon fill="Blue" stroke="Blue" points="2.56359,-433.635 13.1404,-433.018 4.48701,-426.905 2.56359,-433.635"/>
</g>
<!-- HeadingMappedTo&#45;&gt;DescriptorReferredTo -->
<g id="edge63" class="edge"><title>HeadingMappedTo&#45;&gt;DescriptorReferredTo</title>
<path fill="none" stroke="Blue" d="M-154.785,-409.673C-170.425,-421 -189.898,-436.938 -203.644,-454.468 -210.309,-462.968 -215.902,-473.375 -220.241,-482.895"/>
<polygon fill="Blue" stroke="Blue" points="-223.582,-481.807 -224.301,-492.378 -217.147,-484.563 -223.582,-481.807"/>
</g>
<!-- IndexingInformation -->
<g id="node55" class="node"><title>IndexingInformation</title>
<ellipse fill="none" stroke="Red" cx="-297.11" cy="-348.425" rx="84.485" ry="18"/>
<text text-anchor="middle" x="-297.11" y="-344.725" font-family="Times,serif" font-size="14.00">IndexingInformation</text>
</g>
<!-- IndexingInformationList&#45;&gt;IndexingInformation -->
<g id="edge66" class="edge"><title>IndexingInformationList&#45;&gt;IndexingInformation</title>
<path fill="none" stroke="Blue" d="M-369.141,-136.369C-354.849,-143.734 -340.222,-153.867 -330.705,-167.291 -313.574,-191.456 -303.645,-275.479 -299.465,-320.089"/>
<polygon fill="Blue" stroke="Blue" points="-302.931,-320.619 -298.547,-330.264 -295.96,-319.99 -302.931,-320.619"/>
</g>
<!-- IndexingInformation&#45;&gt;QualifierReferredTo -->
<g id="edge68" class="edge"><title>IndexingInformation&#45;&gt;QualifierReferredTo</title>
<path fill="none" stroke="Blue" d="M-269.93,-365.729C-248.114,-378.833 -216.264,-396.237 -186.184,-406.271 -134.05,-423.663 -73.2457,-433.88 -24.6946,-439.782"/>
<polygon fill="Blue" stroke="Blue" points="-24.8681,-443.285 -14.5279,-440.976 -24.051,-436.333 -24.8681,-443.285"/>
</g>
<!-- IndexingInformation&#45;&gt;DescriptorReferredTo -->
<g id="edge67" class="edge"><title>IndexingInformation&#45;&gt;DescriptorReferredTo</title>
<path fill="none" stroke="Blue" d="M-289.749,-366.373C-278.181,-394.581 -255.661,-449.498 -242.023,-482.755"/>
<polygon fill="Blue" stroke="Blue" points="-245.13,-484.403 -238.097,-492.328 -238.653,-481.747 -245.13,-484.403"/>
</g>
<!-- Source -->
<g id="node58" class="node"><title>Source</title>
<ellipse fill="none" stroke="Red" cx="-580.629" cy="196.741" rx="35.194" ry="18"/>
<text text-anchor="middle" x="-580.629" y="200.441" font-family="Times,serif" font-size="14.00">Source</text>
</g>
<!-- SourceList&#45;&gt;Source -->
<g id="edge73" class="edge"><title>SourceList&#45;&gt;Source</title>
<path fill="none" stroke="Blue" d="M-441.67,151.965C-470.8,161.351 -511.376,174.426 -541.163,184.024"/>
<polygon fill="Blue" stroke="Blue" points="-540.227,187.4 -550.819,187.135 -542.374,180.737 -540.227,187.4"/>
</g>
<!-- QualifierRecord -->
<g id="node59" class="node"><title>QualifierRecord</title>
<ellipse fill="none" stroke="Red" cx="141.731" cy="91.522" rx="67.6881" ry="18"/>
<text text-anchor="middle" x="141.731" y="95.222" font-family="Times,serif" font-size="14.00">QualifierRecord</text>
</g>
<!-- QualifierRecord&#45;&gt;Annotation -->
<g id="edge74" class="edge"><title>QualifierRecord&#45;&gt;Annotation</title>
<path fill="none" stroke="Blue" d="M151.444,73.3287C156.018,62.9543 160.334,49.5606 159.595,37.0402 158.325,15.5545 147.93,-6.4158 138.065,-22.7681"/>
<polygon fill="Blue" stroke="Blue" points="135.095,-20.9155 132.7,-31.236 141.008,-24.6619 135.095,-20.9155"/>
</g>
<!-- QualifierRecord&#45;&gt;ConceptList -->
<g id="edge75" class="edge"><title>QualifierRecord&#45;&gt;ConceptList</title>
<path fill="none" stroke="Blue" d="M82.5023,100.259C60.8778,103.448 36.4269,107.055 14.7844,110.247"/>
<polygon fill="Blue" stroke="Blue" points="15.1392,113.733 4.73549,111.73 14.1177,106.808 15.1392,113.733"/>
</g>
<!-- QualifierRecord&#45;&gt;DateCreated -->
<g id="edge76" class="edge"><title>QualifierRecord&#45;&gt;DateCreated</title>
<path fill="none" stroke="Blue" d="M129.18,73.7134C126.773,70.2979 124.207,66.6572 121.662,63.0467"/>
<polygon fill="Blue" stroke="Blue" points="118.748,64.9873 115.848,54.797 124.47,60.9548 118.748,64.9873"/>
</g>
<!-- QualifierRecord&#45;&gt;DateEstablished -->
<g id="edge77" class="edge"><title>QualifierRecord&#45;&gt;DateEstablished</title>
<path fill="none" stroke="Blue" d="M158.834,73.6761C175.953,55.814 202.43,28.1878 221.578,8.20952"/>
<polygon fill="Blue" stroke="Blue" points="219.076,5.76132 228.522,0.96343 224.13,10.6049 219.076,5.76132"/>
</g>
<!-- QualifierRecord&#45;&gt;DateRevised -->
<g id="edge78" class="edge"><title>QualifierRecord&#45;&gt;DateRevised</title>
<path fill="none" stroke="Blue" d="M100.451,77.1831C55.0581,61.4154 -17.7743,36.1162 -65.6161,19.4979"/>
<polygon fill="Blue" stroke="Blue" points="-66.8332,22.7803 -75.1311,16.1927 -64.5363,16.1679 -66.8332,22.7803"/>
</g>
<!-- QualifierRecord&#45;&gt;HistoryNote -->
<g id="edge79" class="edge"><title>QualifierRecord&#45;&gt;HistoryNote</title>
<path fill="none" stroke="Blue" d="M147.764,73.387C151.264,62.8018 155.73,49.1814 159.595,37.0402 167.143,13.3232 166.793,6.60924 176.114,-16.4687 186.313,-41.7193 200.508,-69.2685 211.208,-88.9322"/>
<polygon fill="Blue" stroke="Blue" points="208.259,-90.8337 216.147,-97.9072 214.392,-87.4587 208.259,-90.8337"/>
</g>
<!-- QualifierRecord&#45;&gt;OnlineNote -->
<g id="edge80" class="edge"><title>QualifierRecord&#45;&gt;OnlineNote</title>
<path fill="none" stroke="Blue" d="M107.872,75.9072C93.8614,68.946 77.6897,60.2469 63.8549,51.0597 55.8409,45.7379 54.321,43.7024 47.2055,37.2281 40.3972,31.0333 33.2379,24.1017 26.7076,17.6013"/>
<polygon fill="Blue" stroke="Blue" points="23.9566,19.7984 19.3892,10.2386 28.9212,14.8636 23.9566,19.7984"/>
</g>
<!-- QualifierRecord&#45;&gt;TreeNumberList -->
<g id="edge81" class="edge"><title>QualifierRecord&#45;&gt;TreeNumberList</title>
<path fill="none" stroke="Blue" d="M185.157,77.6511C226.406,61.941 286.199,31.9971 314.501,-16.6322 319.096,-24.527 320.939,-34.1701 321.445,-43.1552"/>
<polygon fill="Blue" stroke="Blue" points="317.946,-43.2788 321.509,-53.2563 324.945,-43.2342 317.946,-43.2788"/>
</g>
</g>
</svg>
